<svg width="32" height="32" viewBox="0 0 32 32" fill="none" xmlns="http://www.w3.org/2000/svg">
<path d="M31 16C31 7.71553 24.2856 1 16 1C7.7144 1 1 7.7144 1 16C1 24.2856 7.7144 31 16 31C24.2856 31 31 24.2856 31 16ZM2.20117 16C2.20117 8.39147 8.39147 2.20004 16.0011 2.20004C23.6108 2.20004 29.8011 8.39147 29.8011 16C29.8011 23.6085 23.6097 29.8 16.0011 29.8C8.39259 29.8 2.20117 23.6085 2.20117 16Z" fill="#026C00"/>
<path d="M2.20117 16C2.20117 8.39147 8.39147 2.20004 16.0011 2.20004C23.6108 2.20004 29.8011 8.39147 29.8011 16C29.8011 23.6085 23.6097 29.8 16.0011 29.8C8.39259 29.8 2.20117 23.6085 2.20117 16Z" fill="#026C00"/>
<path fill-rule="evenodd" clip-rule="evenodd" d="M18.7071 22.7071C18.3166 23.0976 17.6834 23.0976 17.2929 22.7071L11.2929 16.7071C10.9024 16.3166 10.9024 15.6834 11.2929 15.2929L17.2929 9.29289C17.6834 8.90237 18.3166 8.90237 18.7071 9.29289C19.0976 9.68342 19.0976 10.3166 18.7071 10.7071L13.4142 16L18.7071 21.2929C19.0976 21.6834 19.0976 22.3166 18.7071 22.7071Z" fill="white"/>
</svg>
