<svg width="32" height="32" viewBox="0 0 32 32" fill="none" xmlns="http://www.w3.org/2000/svg">
<path d="M31 16C31 7.71553 24.2856 1 16 1C7.7144 1 1 7.7144 1 16C1 24.2856 7.7144 31 16 31C24.2856 31 31 24.2856 31 16Z" fill="#119C0E"/>
<path fill-rule="evenodd" clip-rule="evenodd" d="M19.7071 22.7071C19.3166 23.0976 18.6834 23.0976 18.2929 22.7071L12.2929 16.7071C11.9024 16.3166 11.9024 15.6834 12.2929 15.2929L18.2929 9.29289C18.6834 8.90237 19.3166 8.90237 19.7071 9.29289C20.0976 9.68342 20.0976 10.3166 19.7071 10.7071L14.4142 16L19.7071 21.2929C20.0976 21.6834 20.0976 22.3166 19.7071 22.7071Z" fill="white"/>
</svg>
