<svg width="32" height="32" viewBox="0 0 32 32" fill="none" xmlns="http://www.w3.org/2000/svg">
<path d="M31 16C31 7.72983 24.2714 1 16 1C7.72861 1 1 7.72983 1 16C1 24.2702 7.72983 31 16 31C24.2702 31 31 24.2702 31 16Z" fill="#026C00"/>
<path fill-rule="evenodd" clip-rule="evenodd" d="M19.7071 9.29289C19.3166 8.90237 18.6834 8.90237 18.2929 9.29289L12.2929 15.2929C11.9024 15.6834 11.9024 16.3166 12.2929 16.7071L18.2929 22.7071C18.6834 23.0976 19.3166 23.0976 19.7071 22.7071C20.0976 22.3166 20.0976 21.6834 19.7071 21.2929L14.4142 16L19.7071 10.7071C20.0976 10.3166 20.0976 9.68342 19.7071 9.29289Z" fill="white"/>
</svg>
