<svg width="32" height="32" viewBox="0 0 32 32" fill="none" xmlns="http://www.w3.org/2000/svg">
<path d="M1 16C1 7.72983 7.72861 1 16 1C24.2714 1 31 7.72983 31 16C31 24.2702 24.2702 31 16 31C7.72983 31 1 24.2702 1 16Z" fill="#026C00"/>
<path fill-rule="evenodd" clip-rule="evenodd" d="M12.2929 9.29289C12.6834 8.90237 13.3166 8.90237 13.7071 9.29289L19.7071 15.2929C20.0976 15.6834 20.0976 16.3166 19.7071 16.7071L13.7071 22.7071C13.3166 23.0976 12.6834 23.0976 12.2929 22.7071C11.9024 22.3166 11.9024 21.6834 12.2929 21.2929L17.5858 16L12.2929 10.7071C11.9024 10.3166 11.9024 9.68342 12.2929 9.29289Z" fill="white"/>
</svg>
