<svg width="120" height="120" viewBox="0 0 120 120" fill="none" xmlns="http://www.w3.org/2000/svg">
<path d="M94.4621 35.2988C95.5623 35.2988 96.4541 34.4068 96.4541 33.3068C96.4541 32.2068 95.5623 31.3148 94.4621 31.3148H93.5287V13.984H94.4621C95.5623 13.984 96.4541 13.092 96.4541 11.992C96.4541 10.892 95.5623 10 94.4621 10H25.5379C24.4377 10 23.5459 10.892 23.5459 11.992C23.5459 13.092 24.4377 13.984 25.5379 13.984H26.4713V31.3146H25.5379C24.4377 31.3146 23.5459 32.2066 23.5459 33.3066C23.5459 34.4066 24.4377 35.2986 25.5379 35.2986H26.4713V84.701H25.5379C24.4377 84.701 23.5459 85.593 23.5459 86.693C23.5459 87.793 24.4377 88.685 25.5379 88.685H26.4713V106.016H25.5379C24.4377 106.016 23.5459 106.908 23.5459 108.008C23.5459 109.108 24.4377 110 25.5379 110H94.4621C95.5623 110 96.4541 109.108 96.4541 108.008C96.4541 106.908 95.5623 106.016 94.4621 106.016H93.5287V88.685H94.4621C95.5623 88.685 96.4541 87.793 96.4541 86.693C96.4541 85.593 95.5623 84.701 94.4621 84.701H93.5287V35.2988H94.4621ZM89.5445 106.016H30.4555V88.6853H89.5447V106.016H89.5445ZM89.5445 31.3146H84.9004C83.8002 31.3146 82.9084 32.2066 82.9084 33.3066C82.9084 34.4066 83.8002 35.2986 84.9004 35.2986H89.5445V84.701H30.4555V35.2988H71.3547C72.4549 35.2988 73.3467 34.4068 73.3467 33.3068C73.3467 32.2068 72.4549 31.3148 71.3547 31.3148H30.4555V13.984H89.5447V31.3146H89.5445Z" fill="black"/>
<path d="M78.7249 31.3146H77.7288C76.6286 31.3146 75.7368 32.2066 75.7368 33.3066C75.7368 34.4066 76.6286 35.2986 77.7288 35.2986H78.7249C79.8251 35.2986 80.7169 34.4066 80.7169 33.3066C80.7169 32.2066 79.8253 31.3146 78.7249 31.3146Z" fill="black"/>
<path d="M79.5567 70.9719L71.1182 57.5918L72.9737 58.0014C74.0489 58.2391 75.1112 57.5598 75.3483 56.4855C75.5856 55.4115 74.9067 54.3482 73.8325 54.1111L67.2829 52.6652C66.7671 52.5514 66.227 52.6471 65.7815 52.9314C65.3362 53.2156 65.0219 53.6652 64.9083 54.1811L63.4628 60.7307C63.2257 61.8049 63.9044 62.868 64.9788 63.1051C65.1233 63.1369 65.2678 63.1523 65.41 63.1523C66.3243 63.1523 67.1483 62.5189 67.3534 61.5893L67.762 59.7381L74.2606 70.0424H70.7743C69.6741 70.0424 68.7823 70.9344 68.7823 72.0344C68.7823 73.1344 69.6741 74.0264 70.7743 74.0264H77.8719C78.5977 74.0264 79.2657 73.632 79.6161 72.9965C79.9665 72.3611 79.9436 71.5857 79.5567 70.9719Z" fill="#119C0E"/>
<path d="M64.8547 70.582L60.1123 65.8391C59.3344 65.0615 58.073 65.0613 57.2951 65.8391C56.5172 66.617 56.517 67.8783 57.2951 68.6564L58.6814 70.0428H45.6709L46.7775 68.223C47.349 67.283 47.0504 66.0576 46.1103 65.4861C45.1703 64.9145 43.9451 65.2133 43.3732 66.1533L40.4261 71C40.0523 71.6148 40.039 72.3838 40.392 73.0113C40.7447 73.6387 41.4086 74.0271 42.1283 74.0271H58.5929L57.2949 75.3252C56.517 76.1031 56.517 77.3645 57.2949 78.1426C57.684 78.5314 58.1937 78.726 58.7035 78.726C59.2133 78.726 59.7232 78.5314 60.1121 78.1426L64.8547 73.3998C65.6326 72.6215 65.6326 71.3602 64.8547 70.582Z" fill="#119C0E"/>
<path d="M64.1406 46.55L61.6881 42.6385C61.3244 42.0582 60.6879 41.7057 60.0029 41.7047C60.0021 41.7047 60.0011 41.7047 60.0004 41.7047C59.3166 41.7047 58.6804 42.0557 58.3154 42.6342L50.1019 55.6578L49.6916 53.7985C49.4543 52.724 48.3924 52.0455 47.317 52.2826C46.2427 52.5198 45.564 53.5828 45.8011 54.6571L47.2465 61.2063C47.4517 62.136 48.2756 62.7694 49.1898 62.7694C49.3318 62.7694 49.4765 62.7539 49.6211 62.7221L56.1705 61.2764C57.2447 61.0393 57.9234 59.9762 57.6865 58.902C57.4496 57.8278 56.3871 57.1492 55.3121 57.3862L53.4646 57.794L59.9955 47.4385L60.7652 48.6662C61.3496 49.5985 62.5789 49.8803 63.5113 49.2957C64.4431 48.7114 64.725 47.4823 64.1406 46.55Z" fill="#119C0E"/>
</svg>
