<svg width="32" height="32" viewBox="0 0 32 32" fill="none" xmlns="http://www.w3.org/2000/svg">
<path d="M24 11C24 8.87827 23.1571 6.84344 21.6569 5.34315C20.1566 3.84285 18.1217 3 16 3C13.8783 3 11.8434 3.84285 10.3431 5.34315C8.84286 6.84344 8 8.87827 8 11C8 20.3333 4 23 4 23H28C28 23 24 20.3333 24 11Z" fill="#119C0E"/>
<path d="M18 28C17.7968 28.6083 17.505 29.1132 17.154 29.4643C16.803 29.8153 16.4051 30 16 30C15.5949 30 15.197 29.8153 14.846 29.4643C14.495 29.1132 14.2032 28.6083 14 28M24 11C24 8.87827 23.1571 6.84344 21.6569 5.34315C20.1566 3.84285 18.1217 3 16 3C13.8783 3 11.8434 3.84285 10.3431 5.34315C8.84286 6.84344 8 8.87827 8 11C8 20.3333 4 23 4 23H28C28 23 24 20.3333 24 11Z" stroke="#119C0E" stroke-width="2" stroke-linecap="round" stroke-linejoin="round"/>
</svg>
