<svg width="24" height="24" viewBox="0 0 24 24" fill="none" xmlns="http://www.w3.org/2000/svg">
<path fill-rule="evenodd" clip-rule="evenodd" d="M15.6611 7.65527C15.8483 7.3659 16.1604 7.20534 16.4814 7.19922C16.6741 7.19555 16.8696 7.24785 17.0439 7.36035C17.5074 7.66085 17.6398 8.27966 17.3398 8.74316L11.7666 17.3438C11.5961 17.6063 11.3135 17.7749 11.001 17.7979C10.9765 17.7994 10.9517 17.7998 10.9277 17.7998C10.6417 17.7998 10.3678 17.6774 10.1768 17.4609L6.74902 13.5654C6.38452 13.1504 6.42534 12.5183 6.83984 12.1533C7.25434 11.7883 7.88745 11.8292 8.25195 12.2432L10.8066 15.1484L13.2339 11.4019L15.6611 7.65527Z" fill="white"/>
<path fill-rule="evenodd" clip-rule="evenodd" d="M12 3C16.9705 3 21 7.0295 21 12C21 16.9705 16.9705 21 12 21C7.0295 21 3 16.9705 3 12C3 7.0295 7.0295 3 12 3ZM15.6611 7.65527C15.8483 7.3659 16.1604 7.20534 16.4814 7.19922C16.6741 7.19555 16.8696 7.24785 17.0439 7.36035C17.5074 7.66085 17.6398 8.27966 17.3398 8.74316L11.7666 17.3438C11.5961 17.6063 11.3135 17.7749 11.001 17.7979C10.9765 17.7994 10.9517 17.7998 10.9277 17.7998C10.6417 17.7998 10.3678 17.6774 10.1768 17.4609L6.74902 13.5654C6.38452 13.1504 6.42534 12.5183 6.83984 12.1533C7.25434 11.7883 7.88745 11.8292 8.25195 12.2432L10.8066 15.1484L13.2339 11.4019L15.6611 7.65527Z" fill="#119C0E"/>
<path fill-rule="evenodd" clip-rule="evenodd" d="M12 1C5.925 1 1 5.925 1 12C1 18.075 5.925 23 12 23C18.075 23 23 18.075 23 12C23 5.925 18.075 1 12 1ZM21 12C21 7.0295 16.9705 3 12 3C7.0295 3 3 7.0295 3 12C3 16.9705 7.0295 21 12 21C16.9705 21 21 16.9705 21 12Z" fill="#119C0E"/>
</svg>
