<svg width="16" height="16" viewBox="0 0 16 16" fill="none" xmlns="http://www.w3.org/2000/svg">
<g clip-path="url(#clip0_976_2672)">
<g filter="url(#filter0_i_976_2672)">
<path d="M1.13266 14.5886C2.71326 14.7168 3.60862 14.7689 5.20008 14.8579L6.87298 14.5964C6.39196 14.5449 6.11923 14.5196 5.64204 14.4635C5.3227 14.4259 5.14565 14.4026 4.82881 14.3624C4.16448 14.2781 3.79433 14.2285 3.13648 14.1381C2.63685 14.0696 2.35357 14.0334 1.86179 13.9585C1.19734 13.8574 0.827111 13.7974 0.191755 13.6779C-0.246066 13.5955 -0.487162 13.5466 -0.906753 13.4553C-1.32868 13.3635 -1.56525 13.3113 -1.96115 13.2092C-2.20786 13.1456 -2.57608 13.0407 -2.57608 13.0407C-2.57608 13.0407 -2.94966 12.926 -3.16889 12.8476C-3.36809 12.7765 -3.47557 12.7354 -3.65176 12.6596C-3.8684 12.5665 -3.99596 12.5139 -4.15631 12.4132C-4.33067 12.3038 -4.38208 12.238 -4.48468 12.1239C-4.54479 12.057 -4.57517 12.0193 -4.61573 11.952C-4.64798 11.8985 -4.6636 11.8684 -4.68099 11.815C-4.7187 11.6992 -4.71246 11.6343 -4.67944 11.5216C-4.6511 11.425 -4.6188 11.3717 -4.54619 11.2789C-4.43214 11.1333 -4.32685 11.0557 -4.12642 10.9218C-3.8095 10.7099 -2.54655 10.2989 -2.54655 10.2989C-2.54655 10.2989 -4.45892 10.5522 -5.26877 10.6716C-5.61208 10.7223 -5.80827 10.7496 -6.12726 10.8109C-6.4693 10.8767 -6.64527 10.9214 -6.94864 10.9984L-6.96403 11.0023C-7.36667 11.1045 -7.58566 11.1649 -7.93324 11.2832C-8.21233 11.3783 -8.38322 11.4296 -8.59442 11.54C-8.8106 11.6531 -8.8944 11.7245 -9.01395 11.8526C-9.1169 11.9628 -9.15519 12.0276 -9.19145 12.1443C-9.23023 12.2691 -9.26638 12.341 -9.19317 12.4696C-9.14998 12.5454 -9.10665 12.5881 -9.01824 12.6626C-8.92751 12.739 -8.86161 12.7811 -8.73334 12.8543C-8.60425 12.9278 -8.52237 12.9684 -8.36041 13.0372C-8.15382 13.125 -8.01138 13.1694 -7.7677 13.2494C-7.44485 13.3553 -7.25304 13.4128 -6.88932 13.5065C-6.15487 13.6959 -5.66127 13.7721 -4.82406 13.9138C-3.83747 14.0807 -3.24932 14.1533 -2.20873 14.276C-0.925538 14.4274 -0.1802 14.4822 1.13266 14.5886Z" fill="url(#paint0_linear_976_2672)"/>
<path d="M-2.99919 15.1724C-1.06229 15.239 0.0320604 15.2551 1.97671 15.2798C2.40227 15.2853 2.78635 15.2893 3.14734 15.2922L5.26806 15.0032C4.76118 14.9755 4.47754 14.9593 3.9714 14.9306C3.38019 14.8971 3.04554 14.8822 2.45834 14.8437C2.06538 14.8178 1.84718 14.801 1.45689 14.7723C0.638565 14.7121 0.182238 14.6757 -0.629068 14.6089C-1.24523 14.5582 -1.59422 14.5323 -2.20174 14.4746C-3.02256 14.3966 -3.48043 14.3493 -4.26849 14.2507C-4.81154 14.1827 -5.11108 14.1415 -5.63324 14.0632C-6.1583 13.9846 -6.45281 13.9397 -6.9477 13.8491C-7.25611 13.7926 -7.71779 13.6977 -7.71779 13.6977C-7.71779 13.6977 -8.18735 13.5927 -8.46444 13.5195C-8.71621 13.453 -8.85244 13.4142 -9.0769 13.3418C-9.35291 13.2528 -9.51511 13.2028 -9.72382 13.1033C-9.95078 12.9952 -10.0224 12.928 -10.1628 12.8118C-10.2451 12.7437 -10.2873 12.7051 -10.3459 12.6358C-10.3925 12.5807 -10.4157 12.5496 -10.4442 12.4939C-10.5061 12.3731 -10.5076 12.3042 -10.4832 12.1837C-10.4623 12.0802 -10.4305 12.0225 -10.3553 11.9213C-10.2371 11.7624 -10.1201 11.6758 -9.89537 11.5255C-9.54011 11.2878 -8.06399 10.7983 -8.06399 10.7983C-8.06399 10.7983 -10.3506 11.1493 -11.3172 11.3109C-11.7269 11.3794 -11.9613 11.4168 -12.3401 11.4955C-12.7462 11.5799 -12.9536 11.6348 -13.3112 11.7294L-13.3112 11.7294L-13.3294 11.7342C-13.804 11.8598 -14.0615 11.9332 -14.467 12.0734C-14.7926 12.186 -14.9929 12.2477 -15.2339 12.3737C-15.4807 12.5026 -15.5725 12.5817 -15.6998 12.7223C-15.8094 12.8433 -15.8469 12.9135 -15.8746 13.0384C-15.9043 13.172 -15.9382 13.2495 -15.8314 13.3823C-15.7684 13.4606 -15.7098 13.5039 -15.5921 13.5787C-15.4713 13.6555 -15.3854 13.6972 -15.2195 13.7689C-15.0525 13.8411 -14.9474 13.8803 -14.7412 13.946C-14.4781 14.0299 -14.299 14.0706 -13.992 14.1445C-13.5853 14.2424 -13.3444 14.2948 -12.8897 14.378C-11.9716 14.5462 -11.3617 14.6053 -10.3255 14.7185C-9.10436 14.852 -8.38016 14.9031 -7.09963 14.9875C-5.52058 15.0916 -4.60801 15.1171 -2.99919 15.1724Z" fill="url(#paint1_linear_976_2672)"/>
<path d="M1.79251 13.6414C2.85143 13.8424 3.47258 13.9294 4.56485 14.0915C5.61915 14.248 6.3094 14.3383 7.22777 14.4507L8.40633 14.2078C8.14278 14.1578 7.99711 14.128 7.73616 14.0758C7.18902 13.9664 6.88466 13.9031 6.3441 13.7886C5.93356 13.7017 5.70029 13.6549 5.29754 13.5627C4.75339 13.4382 4.45084 13.3655 3.93468 13.226C3.579 13.1298 3.38378 13.0737 3.04517 12.9704C2.70468 12.8666 2.51389 12.8077 2.19731 12.696C2.00003 12.6264 1.70741 12.5135 1.70741 12.5135C1.70741 12.5135 1.41204 12.3915 1.24072 12.3101C1.08506 12.2361 1.00156 12.1937 0.866222 12.1168C0.699797 12.0222 0.601405 11.9685 0.484035 11.8699C0.356408 11.7628 0.324897 11.7011 0.258899 11.5934C0.220227 11.5303 0.201404 11.4949 0.179361 11.4325C0.161838 11.3828 0.154114 11.355 0.149155 11.3062C0.138403 11.2003 0.155555 11.1423 0.204141 11.0428C0.245817 10.9574 0.282926 10.9112 0.361373 10.8316C0.4846 10.7066 0.587938 10.6423 0.782174 10.5322C1.08929 10.358 2.23396 10.053 2.23396 10.053C2.23396 10.053 0.568208 10.1834 -0.139426 10.2497C-0.439412 10.2777 -0.610549 10.2923 -0.891887 10.3312C-1.19355 10.3729 -1.35074 10.4041 -1.62171 10.4579L-1.63548 10.4606C-1.99513 10.532 -2.19162 10.5751 -2.50761 10.6637C-2.76132 10.7349 -2.91543 10.7723 -3.11447 10.8608C-3.31821 10.9513 -3.40224 11.0112 -3.5269 11.1201C-3.63425 11.214 -3.67852 11.2702 -3.73057 11.3731C-3.78624 11.4832 -3.83 11.5459 -3.79153 11.6651C-3.76883 11.7354 -3.73996 11.776 -3.6787 11.8473C-3.61585 11.9205 -3.56776 11.9617 -3.47251 12.0339C-3.37666 12.1065 -3.31474 12.147 -3.19018 12.2171C-3.0313 12.3064 -2.9188 12.3535 -2.72708 12.4376C-2.47307 12.5491 -2.32115 12.6104 -2.0303 12.7131C-1.44299 12.9203 -1.03895 13.0138 -0.355912 13.1835C0.449009 13.3834 0.933784 13.4784 1.79251 13.6414Z" fill="url(#paint2_linear_976_2672)"/>
</g>
<g filter="url(#filter1_i_976_2672)">
<path d="M6.27215 15.2639C5.02294 15.3477 3.07396 15.4674 3.07396 15.4674C3.07396 15.4674 4.27845 15.3076 5.05455 15.2106C5.59944 15.1424 5.90753 15.1076 6.45292 15.0401C6.91758 14.9826 7.17786 14.95 7.64142 14.8911C8.07875 14.8355 8.32335 14.8037 8.7599 14.7471C9.26981 14.6811 9.559 14.6476 10.0647 14.577C10.4032 14.5298 10.5908 14.5012 10.9265 14.4514C11.6304 14.347 12.0225 14.2862 12.7195 14.176C13.2487 14.0924 13.5489 14.0477 14.0697 13.9579C14.7734 13.8367 15.1654 13.7656 15.8377 13.6269C16.301 13.5313 16.5561 13.4751 16.9998 13.3711C17.446 13.2666 17.6962 13.2072 18.1145 13.0932C18.3752 13.0222 18.7641 12.9061 18.7641 12.9061C18.7641 12.9061 19.1584 12.7802 19.3895 12.6952C19.5996 12.6181 19.7128 12.5737 19.8983 12.4927C20.1264 12.393 20.2607 12.3366 20.4288 12.2311C20.6116 12.1163 20.6647 12.049 20.7712 11.9318C20.8335 11.8631 20.8649 11.8245 20.9065 11.756C20.9396 11.7015 20.9555 11.671 20.9727 11.6171C21.0102 11.5001 21.0021 11.4354 20.9645 11.3237C20.9322 11.2279 20.8967 11.1756 20.8174 11.0851C20.6929 10.9429 20.5793 10.8685 20.3633 10.7406C20.0219 10.5384 18.6707 10.1655 18.6707 10.1655C18.6707 10.1655 20.7083 10.361 21.5714 10.456C21.9373 10.4963 22.1464 10.5177 22.4867 10.5694C22.8516 10.6248 23.0395 10.6641 23.3636 10.732L23.38 10.7354C23.8101 10.8255 24.0442 10.8792 24.4161 10.9871C24.7148 11.0737 24.8975 11.1199 25.1244 11.2239C25.3567 11.3304 25.4473 11.3993 25.5772 11.5237C25.6891 11.6309 25.7312 11.6945 25.7724 11.81C25.8164 11.9337 25.8565 12.0044 25.7816 12.1352C25.7374 12.2124 25.6923 12.2564 25.6001 12.3335C25.5054 12.4126 25.4363 12.4568 25.3017 12.5338C25.1662 12.6113 25.0801 12.6543 24.9096 12.728C24.6921 12.822 24.5418 12.8707 24.2847 12.958C23.9441 13.0737 23.7416 13.137 23.3572 13.2417C22.5812 13.4532 22.0585 13.5443 21.1722 13.7113C20.1277 13.908 19.5045 13.9983 18.4017 14.1525C17.0417 14.3426 16.2511 14.4199 14.8586 14.5659C13.1822 14.7418 12.2321 14.821 10.5432 14.9581C8.87672 15.0933 7.94008 15.1521 6.27215 15.2639Z" fill="url(#paint3_linear_976_2672)"/>
<path d="M8.75993 15.4505C7.23476 15.4936 4.76364 15.5212 4.76364 15.5212C4.76364 15.5212 6.33943 15.4238 7.29381 15.3493C7.96385 15.297 8.34215 15.2714 9.01271 15.2198C9.58402 15.1759 9.90409 15.1508 10.4743 15.1053C11.0122 15.0624 11.3132 15.0376 11.8503 14.9936C12.4777 14.9423 12.8329 14.9173 13.4559 14.861C13.8728 14.8233 14.1043 14.7999 14.5183 14.7594C15.3864 14.6745 15.8704 14.6243 16.7309 14.533C17.3844 14.4637 17.7546 14.4273 18.3987 14.3512C19.2691 14.2485 19.7545 14.1874 20.5895 14.0649C21.1649 13.9805 21.4823 13.9303 22.0353 13.8363C22.5914 13.7418 22.9033 13.688 23.427 13.5824C23.7534 13.5166 24.2418 13.4078 24.2418 13.4078C24.2418 13.4078 24.7383 13.2887 25.031 13.2071C25.297 13.1329 25.4409 13.0901 25.6777 13.0109C25.969 12.9136 26.1402 12.8586 26.3597 12.7529C26.5984 12.638 26.6729 12.5685 26.8195 12.4481C26.9055 12.3776 26.9494 12.3377 27.0101 12.2666C27.0583 12.2101 27.0822 12.1783 27.1113 12.1218C27.1744 11.9991 27.1744 11.9302 27.1457 11.8104C27.1212 11.7076 27.0861 11.6509 27.0039 11.552C26.8747 11.3966 26.7484 11.3136 26.5063 11.1701C26.1235 10.9431 24.5441 10.4982 24.5441 10.4982C24.5441 10.4982 26.9814 10.7802 28.0121 10.9125C28.449 10.9687 28.6989 10.999 29.1031 11.0663C29.5365 11.1384 29.7581 11.187 30.1401 11.2708L30.1595 11.2751C30.6666 11.3863 30.9418 11.4519 31.3759 11.5799C31.7244 11.6826 31.9386 11.7383 32.1975 11.8569C32.4626 11.9783 32.5619 12.0547 32.7003 12.1914C32.8195 12.3092 32.8609 12.3781 32.8932 12.5022C32.9278 12.6349 32.9656 12.7114 32.8551 12.8474C32.7899 12.9276 32.7287 12.9726 32.6053 13.051C32.4787 13.1314 32.3884 13.1757 32.2137 13.2524C32.0379 13.3296 31.9272 13.3721 31.7095 13.444C31.4319 13.5358 31.2425 13.5819 30.918 13.6651C30.4881 13.7752 30.2333 13.8349 29.7521 13.9319C28.7805 14.1277 28.1338 14.2052 27.0354 14.3498C25.741 14.5201 24.9728 14.5931 23.6142 14.7162C21.9388 14.868 20.9698 14.9209 19.2618 15.0248C17.2054 15.1499 16.043 15.1991 13.9775 15.2826C11.9393 15.365 10.7963 15.393 8.75993 15.4505Z" fill="url(#paint4_linear_976_2672)"/>
<path d="M4.02766 15.1945C2.9806 15.3273 1.52929 15.4637 1.52929 15.4637C1.52929 15.4637 2.339 15.3261 2.98071 15.2033C3.43125 15.1172 3.68672 15.0718 4.13782 14.9862C4.52214 14.9132 4.73734 14.8721 5.12045 14.7979C5.48187 14.728 5.68388 14.6881 6.04445 14.6174C6.46563 14.5347 6.70527 14.4914 7.12199 14.4048C7.40087 14.3469 7.55497 14.3127 7.83104 14.2526C8.40988 14.1267 8.73183 14.0542 9.30356 13.9234C9.73778 13.8241 9.98457 13.7702 10.4104 13.6659C10.9857 13.525 11.3055 13.4432 11.8508 13.2881C12.2265 13.1812 12.4326 13.1191 12.7901 13.0057C13.1495 12.8916 13.3509 12.8269 13.6847 12.7057C13.8927 12.6301 14.2011 12.5084 14.2011 12.5084C14.2011 12.5084 14.5121 12.3775 14.6923 12.2909C14.856 12.2122 14.9438 12.1673 15.0858 12.0863C15.2605 11.9867 15.3639 11.93 15.4863 11.828C15.6195 11.717 15.6516 11.6544 15.7193 11.5447C15.7589 11.4804 15.7781 11.4444 15.8001 11.3813C15.8176 11.3311 15.8252 11.3031 15.8294 11.2541C15.8384 11.1479 15.8189 11.0905 15.765 10.9924C15.7188 10.9083 15.6783 10.8632 15.5932 10.786C15.4594 10.6648 15.3482 10.6036 15.1393 10.4993C14.8091 10.3345 13.586 10.064 13.586 10.064C13.586 10.064 15.3588 10.1442 16.1121 10.189C16.4315 10.208 16.6136 10.2175 16.9134 10.2478C17.2349 10.2804 17.4026 10.3068 17.6917 10.3524L17.7064 10.3547C18.0901 10.4152 18.2999 10.4524 18.6376 10.5315C18.9088 10.595 19.0733 10.6278 19.2868 10.7102C19.5053 10.7946 19.596 10.8519 19.7309 10.9571C19.847 11.0477 19.8953 11.1025 19.953 11.2039C20.0146 11.3123 20.0625 11.3737 20.0243 11.494C20.0018 11.565 19.9721 11.6064 19.9086 11.6796C19.8435 11.7547 19.7933 11.7973 19.6937 11.8724C19.5935 11.9479 19.5287 11.9903 19.3979 12.0641C19.2311 12.1582 19.1127 12.2087 18.9109 12.2986C18.6435 12.4178 18.4835 12.4837 18.1768 12.5951C17.5575 12.8201 17.1303 12.9257 16.4084 13.116C15.5577 13.3402 15.0448 13.4498 14.1361 13.6387C13.0156 13.8717 12.3576 13.9774 11.2008 14.1725C9.80804 14.4074 9.0147 14.5223 7.60378 14.7231C6.21155 14.9212 5.4257 15.0172 4.02766 15.1945Z" fill="url(#paint5_linear_976_2672)"/>
</g>
<path fill-rule="evenodd" clip-rule="evenodd" d="M6.39436 0.00818242L4.874 0.695543L4.70631 1.89573L4.03101 2.58217L2.67928 2.92649L2.00493 4.47008L2.68231 5.66935L2.68326 6.52649L2.00834 7.55579L2.68611 9.09792L4.0386 9.43931L4.71541 10.1243L4.88576 11.3241L6.40764 12.0082L7.58998 11.3212L8.60406 11.3201L9.78792 12.0045L11.3083 11.3172L11.476 10.117L12.1513 9.43053L13.503 9.08621L14.0083 7.5428L13.331 6.34353L13.33 5.48639L14.0047 4.28566L13.3272 2.91496L12.1437 2.57339L11.4669 1.88841L11.1275 0.688773L9.60563 0.00470613L8.5923 0.691518L7.57822 0.692616L6.39436 0.00818242ZM8.00992 8.97486C9.64933 8.97309 10.9769 7.64264 10.9751 6.00323C10.9732 4.36381 9.64276 3.03625 8.00335 3.03802C6.36394 3.0398 5.0364 4.37024 5.03822 6.00965C5.04003 7.64907 6.37051 8.97663 8.00992 8.97486Z" fill="#EDAC1A"/>
</g>
<defs>
<filter id="filter0_i_976_2672" x="-15.9042" y="10.053" width="24.3105" height="6.23926" filterUnits="userSpaceOnUse" color-interpolation-filters="sRGB">
<feFlood flood-opacity="0" result="BackgroundImageFix"/>
<feBlend mode="normal" in="SourceGraphic" in2="BackgroundImageFix" result="shape"/>
<feColorMatrix in="SourceAlpha" type="matrix" values="0 0 0 0 0 0 0 0 0 0 0 0 0 0 0 0 0 0 127 0" result="hardAlpha"/>
<feOffset dy="1"/>
<feGaussianBlur stdDeviation="0.5"/>
<feComposite in2="hardAlpha" operator="arithmetic" k2="-1" k3="1"/>
<feColorMatrix type="matrix" values="0 0 0 0 0 0 0 0 0 0 0 0 0 0 0 0 0 0 0.1 0"/>
<feBlend mode="luminosity" in2="shape" result="effect1_innerShadow_976_2672"/>
</filter>
<filter id="filter1_i_976_2672" x="1.5293" y="10.0641" width="31.3992" height="6.45715" filterUnits="userSpaceOnUse" color-interpolation-filters="sRGB">
<feFlood flood-opacity="0" result="BackgroundImageFix"/>
<feBlend mode="normal" in="SourceGraphic" in2="BackgroundImageFix" result="shape"/>
<feColorMatrix in="SourceAlpha" type="matrix" values="0 0 0 0 0 0 0 0 0 0 0 0 0 0 0 0 0 0 127 0" result="hardAlpha"/>
<feOffset dy="1"/>
<feGaussianBlur stdDeviation="0.5"/>
<feComposite in2="hardAlpha" operator="arithmetic" k2="-1" k3="1"/>
<feColorMatrix type="matrix" values="0 0 0 0 0 0 0 0 0 0 0 0 0 0 0 0 0 0 0.1 0"/>
<feBlend mode="luminosity" in2="shape" result="effect1_innerShadow_976_2672"/>
</filter>
<linearGradient id="paint0_linear_976_2672" x1="-17.5359" y1="11.6628" x2="8.46626" y2="12.7322" gradientUnits="userSpaceOnUse">
<stop offset="0.0048071" stop-color="#026C00"/>
<stop offset="1" stop-color="#9CCC65"/>
</linearGradient>
<linearGradient id="paint1_linear_976_2672" x1="-17.5359" y1="11.6628" x2="8.46626" y2="12.7322" gradientUnits="userSpaceOnUse">
<stop offset="0.0048071" stop-color="#026C00"/>
<stop offset="1" stop-color="#9CCC65"/>
</linearGradient>
<linearGradient id="paint2_linear_976_2672" x1="-17.5359" y1="11.6628" x2="8.46626" y2="12.7322" gradientUnits="userSpaceOnUse">
<stop offset="0.0048071" stop-color="#026C00"/>
<stop offset="1" stop-color="#9CCC65"/>
</linearGradient>
<linearGradient id="paint3_linear_976_2672" x1="35.0192" y1="11.0444" x2="1.38513" y2="13.2771" gradientUnits="userSpaceOnUse">
<stop offset="0.0048071" stop-color="#026C00"/>
<stop offset="1" stop-color="#9CCC65"/>
</linearGradient>
<linearGradient id="paint4_linear_976_2672" x1="35.0192" y1="11.0444" x2="1.38513" y2="13.2771" gradientUnits="userSpaceOnUse">
<stop offset="0.0048071" stop-color="#026C00"/>
<stop offset="1" stop-color="#9CCC65"/>
</linearGradient>
<linearGradient id="paint5_linear_976_2672" x1="35.0192" y1="11.0444" x2="1.38513" y2="13.2771" gradientUnits="userSpaceOnUse">
<stop offset="0.0048071" stop-color="#026C00"/>
<stop offset="1" stop-color="#9CCC65"/>
</linearGradient>
<clipPath id="clip0_976_2672">
<rect width="16" height="16" fill="white"/>
</clipPath>
</defs>
</svg>
