<svg width="120" height="120" viewBox="0 0 120 120" fill="none" xmlns="http://www.w3.org/2000/svg">
<path d="M89.3892 40.2789H81.6856C72.4175 40.2789 64.4226 45.8311 60.8499 53.784C57.2776 45.8313 49.2823 40.2789 40.0142 40.2789H32.3108C31.2106 40.2789 30.3188 41.1709 30.3188 42.2709V49.9744C30.3188 62.5617 40.5593 72.8022 53.1466 72.8022H58.8579V84.7291C58.8581 85.8291 59.7499 86.7211 60.8501 86.7211C61.9503 86.7211 62.8421 85.8291 62.8421 84.7291V72.8022H68.5534C81.1407 72.8022 91.3811 62.5617 91.3811 49.9744V42.2709C91.3811 41.1709 90.4894 40.2789 89.3892 40.2789ZM58.8579 66.0008L42.7155 49.8584C41.9376 49.0807 40.6763 49.0807 39.8981 49.8584C39.1202 50.6364 39.1202 51.8977 39.8981 52.6758L56.0407 68.8182H53.1464C42.7562 68.8182 34.303 60.3651 34.303 49.9746V44.2631H40.0144C50.4048 44.2631 58.8579 52.7162 58.8579 63.1067V66.0008ZM87.3972 49.9744C87.3972 60.3649 78.944 68.818 68.5536 68.818H65.6595L76.3536 58.1239C77.1315 57.3459 77.1315 56.0846 76.3536 55.3065C75.5757 54.5287 74.3144 54.5287 73.5362 55.3065L62.8423 66.0004V63.1063C62.8423 52.716 71.2954 44.2629 81.6856 44.2629H87.3972V49.9744Z" fill="#119C0E"/>
<path d="M81.8018 49.8582C81.0239 49.0805 79.7625 49.0805 78.9844 49.8582L78.2016 50.641C77.4237 51.4189 77.4237 52.6803 78.2016 53.4584C78.5909 53.8473 79.1006 54.0418 79.6104 54.0418C80.1202 54.0418 80.6301 53.8473 81.019 53.4584L81.8018 52.6756C82.5797 51.8977 82.5797 50.6363 81.8018 49.8582Z" fill="black"/>
<path d="M108.008 58.008C106.908 58.008 106.016 58.9 106.016 60C106.016 85.3732 85.3734 106.016 60 106.016C48.7506 106.016 38.1191 102.004 29.7342 94.6615H36.0955C37.1957 94.6615 38.0875 93.7695 38.0875 92.6695C38.0875 91.5695 37.1957 90.6775 36.0955 90.6775H25.3387C24.2385 90.6775 23.3467 91.5695 23.3467 92.6695V103.427C23.3467 104.527 24.2385 105.419 25.3387 105.419C26.4389 105.419 27.3307 104.527 27.3307 103.427V97.8547C36.4076 105.712 47.874 110 60 110C73.3555 110 85.9115 104.799 95.3555 95.3553C104.799 85.9115 110 73.3557 110 60C110 58.9 109.108 58.008 108.008 58.008Z" fill="black"/>
<path d="M95.6574 15.3785C94.5572 15.3785 93.6654 16.2705 93.6654 17.3705V23.0322C84.4387 14.6115 72.574 10 60 10C46.6445 10 34.0885 15.2008 24.6445 24.6449C15.2008 34.0885 10 46.6443 10 60C10 61.1 10.8918 61.992 11.992 61.992C13.0922 61.992 13.984 61.1 13.984 60C13.984 34.6268 34.6266 13.984 60 13.984C71.6498 13.984 82.6369 18.2863 91.1521 26.1354H84.9004C83.8002 26.1354 82.9084 27.0273 82.9084 28.1273C82.9084 29.2273 83.8002 30.1193 84.9004 30.1193H95.6574C96.7576 30.1193 97.6494 29.2273 97.6494 28.1273V17.3705C97.6494 16.2705 96.7576 15.3785 95.6574 15.3785Z" fill="black"/>
</svg>
