<svg width="32" height="32" viewBox="0 0 32 32" fill="none" xmlns="http://www.w3.org/2000/svg">
<path d="M26.9993 20.9686V24.5816C27.0006 24.917 26.9375 25.249 26.814 25.5563C26.6906 25.8636 26.5096 26.1395 26.2826 26.3662C26.0556 26.593 25.7876 26.7656 25.4958 26.8731C25.2039 26.9805 24.8947 27.0204 24.5879 26.9902C21.1841 26.5875 17.9145 25.3212 15.0418 23.293C12.3691 21.4439 10.1032 18.9769 8.40487 16.067C6.53545 12.9252 5.37207 9.34809 5.00898 5.62554C4.98134 5.2925 5.01769 4.95685 5.11572 4.63995C5.21376 4.32305 5.37132 4.03185 5.57839 3.78488C5.78546 3.53791 6.03749 3.34059 6.31843 3.20548C6.59938 3.07037 6.90309 3.00043 7.21023 3.00012H10.5287C11.0655 2.99436 11.5859 3.20133 11.993 3.58245C12.4 3.96356 12.6659 4.49281 12.741 5.07155C12.8811 6.22778 13.1408 7.36305 13.5153 8.4557C13.6641 8.88675 13.6963 9.35522 13.6081 9.8056C13.5199 10.256 13.3149 10.6694 13.0175 10.9968L11.6127 12.5263C13.1874 15.5414 15.4803 18.0378 18.2496 19.7522L19.6545 18.2228C19.9552 17.899 20.3349 17.6758 20.7486 17.5798C21.1622 17.4837 21.5925 17.5188 21.9884 17.6808C22.992 18.0885 24.0348 18.3713 25.0967 18.5238C25.6341 18.6064 26.1248 18.901 26.4756 19.3518C26.8264 19.8026 27.0128 20.378 26.9993 20.9686Z" stroke="white" stroke-width="2" stroke-linecap="round" stroke-linejoin="round"/>
</svg>
