<svg width="32" height="32" viewBox="0 0 32 32" fill="none" xmlns="http://www.w3.org/2000/svg">
<path fill-rule="evenodd" clip-rule="evenodd" d="M16 3C13.6603 3 11.3839 4.0635 9.68225 6.01262C7.97687 7.96605 7 10.6413 7 13.4545C7 17.5557 9.31743 21.4648 11.7706 24.4309C12.9836 25.8975 14.199 27.0966 15.1114 27.9288C15.458 28.2449 15.7598 28.5072 16 28.7102C16.2402 28.5072 16.542 28.2449 16.8886 27.9288C17.801 27.0966 19.0164 25.8975 20.2294 24.4309C22.6826 21.4648 25 17.5557 25 13.4545C25 10.6413 24.0231 7.96605 22.3178 6.01262C20.6161 4.0635 18.3397 3 16 3ZM16 30C15.3931 30.7948 15.3928 30.7946 15.3925 30.7943L15.3918 30.7937L15.3895 30.792L15.3823 30.7865L15.3573 30.7671C15.3359 30.7505 15.3053 30.7265 15.2662 30.6955C15.1879 30.6334 15.0751 30.5427 14.9329 30.425C14.6485 30.1897 14.2455 29.846 13.7636 29.4064C12.801 28.5284 11.5164 27.2616 10.2294 25.7055C7.68257 22.6262 5 18.2624 5 13.4545C5 10.1919 6.13027 7.04015 8.17562 4.6973C10.2247 2.35013 13.0354 1 16 1C18.9646 1 21.7753 2.35013 23.8244 4.6973C25.8697 7.04015 27 10.1919 27 13.4545C27 18.2624 24.3174 22.6262 21.7706 25.7055C20.4836 27.2616 19.199 28.5284 18.2364 29.4064C17.7545 29.846 17.3515 30.1897 17.0671 30.425C16.9249 30.5427 16.8121 30.6334 16.7338 30.6955C16.6947 30.7265 16.6641 30.7505 16.6427 30.7671L16.6177 30.7865L16.6105 30.792L16.6082 30.7937L16.6075 30.7943C16.6072 30.7946 16.6069 30.7948 16 30ZM16 30L16.6069 30.7948C16.2486 31.0684 15.7514 31.0684 15.3931 30.7948L16 30ZM16 11C14.8954 11 14 11.8954 14 13C14 14.1046 14.8954 15 16 15C17.1046 15 18 14.1046 18 13C18 11.8954 17.1046 11 16 11ZM12 13C12 10.7909 13.7909 9 16 9C18.2091 9 20 10.7909 20 13C20 15.2091 18.2091 17 16 17C13.7909 17 12 15.2091 12 13Z" fill="white"/>
</svg>
