<svg width="32" height="32" viewBox="0 0 32 32" fill="none" xmlns="http://www.w3.org/2000/svg">
<rect width="32" height="32" rx="16" fill="#EDAC1A"/>
<path fill-rule="evenodd" clip-rule="evenodd" d="M10.1333 11.3333C9.63364 11.3333 9.33333 11.6932 9.33333 12V20C9.33333 20.3068 9.63364 20.6667 10.1333 20.6667H21.8667C22.3664 20.6667 22.6667 20.3068 22.6667 20V12C22.6667 11.6932 22.3664 11.3333 21.8667 11.3333H10.1333ZM8 12C8 10.8401 9.01969 10 10.1333 10H21.8667C22.9803 10 24 10.8401 24 12V20C24 21.1599 22.9803 22 21.8667 22H10.1333C9.01969 22 8 21.1599 8 20V12Z" fill="white"/>
<path fill-rule="evenodd" clip-rule="evenodd" d="M8.10431 12.3088C8.30198 11.9982 8.71403 11.9066 9.02466 12.1043L16 16.5431L22.9753 12.1043C23.286 11.9066 23.698 11.9982 23.8957 12.3088C24.0934 12.6195 24.0018 13.0315 23.6912 13.2292L16.3579 17.8958C16.1395 18.0347 15.8605 18.0347 15.6421 17.8958L8.30883 13.2292C7.99821 13.0315 7.90664 12.6195 8.10431 12.3088Z" fill="white"/>
</svg>
