<svg width="32" height="32" viewBox="0 0 32 32" fill="none" xmlns="http://www.w3.org/2000/svg">
<path d="M26.9993 21.9686V25.5816C27.0006 25.917 26.9375 26.249 26.8141 26.5563C26.6906 26.8636 26.5096 27.1395 26.2826 27.3662C26.0556 27.593 25.7876 27.7656 25.4958 27.873C25.2039 27.9805 24.8947 28.0204 24.5879 27.9902C21.1841 27.5875 17.9145 26.3212 15.0418 24.293C12.3691 22.4439 10.1032 19.9769 8.40487 17.067C6.53545 13.9252 5.37207 10.3481 5.00898 6.62554C4.98134 6.29251 5.01769 5.95685 5.11572 5.63995C5.21376 5.32305 5.37132 5.03185 5.57839 4.78488C5.78546 4.53791 6.03749 4.34059 6.31843 4.20548C6.59938 4.07037 6.90309 4.00043 7.21023 4.00012H10.5287C11.0655 3.99436 11.5859 4.20133 11.993 4.58245C12.4 4.96356 12.6659 5.49281 12.741 6.07155C12.8811 7.22778 13.1408 8.36305 13.5153 9.4557C13.6641 9.88675 13.6963 10.3552 13.6081 10.8056C13.5199 11.256 13.3149 11.6694 13.0175 11.9968L11.6127 13.5263C13.1874 16.5414 15.4803 19.0378 18.2496 20.7522L19.6545 19.2228C19.9552 18.899 20.3349 18.6758 20.7486 18.5798C21.1622 18.4837 21.5925 18.5188 21.9884 18.6808C22.992 19.0885 24.0348 19.3713 25.0967 19.5238C25.6341 19.6064 26.1248 19.901 26.4756 20.3518C26.8264 20.8026 27.0128 21.378 26.9993 21.9686Z" stroke="#119C0E" stroke-width="2" stroke-linecap="round" stroke-linejoin="round"/>
</svg>
