<svg width="150" height="150" viewBox="0 0 150 150" fill="none" xmlns="http://www.w3.org/2000/svg">
<path d="M115.935 86.9716H53.335C50.8886 86.9716 48.8443 88.946 48.6433 91.4725L38.1875 142.27V142.605C38.1875 145.315 40.2988 147.507 42.8792 147.507H126.374C128.972 147.507 131.066 145.315 131.066 142.605V142.27L120.61 91.4725C120.409 88.946 118.382 86.9716 115.935 86.9716ZM104.173 48.154C104.173 60.7697 97.2693 71.0096 84.6352 71.0096C72.0012 71.0096 61.7465 60.7697 61.7465 48.154C61.7465 35.5383 72.0012 25.2985 84.6352 25.2985C97.2693 25.2985 104.173 35.5383 104.173 48.154Z" fill="#CCCCCC"/>
<path d="M44.7216 48.4049C44.7216 64.7853 58.1934 78.1037 74.7652 78.1037C82.7913 78.1037 90.3315 75.0251 95.995 69.4199C101.675 63.8148 104.809 56.3525 104.809 48.4049C104.809 32.0245 91.3369 18.7061 74.7652 18.7061C58.2102 18.7061 44.7216 32.0245 44.7216 48.4049ZM74.7652 25.3987C87.6338 25.3987 98.1063 35.7222 98.1063 48.4049C98.1063 61.0875 87.6338 71.411 74.7652 71.411C61.8965 71.411 51.424 61.0875 51.424 48.4049C51.424 35.7222 61.8965 25.3987 74.7652 25.3987ZM115.063 80.4462H34.7182C31.5681 80.4462 28.9542 82.7217 28.7028 85.6163L15.2812 143.977V144.361C15.2812 147.473 17.9957 150 21.3134 150H128.468C131.803 150 134.5 147.473 134.5 144.361V143.977L121.079 85.6163C120.811 82.7217 118.214 80.4462 115.063 80.4462ZM22.302 143.307L35.2377 87.1389H74.5641L63.6894 97.8806C63.2035 98.3659 63.0024 99.0686 63.17 99.7379L73.3912 140.128C73.8938 142.103 76.7256 142.103 77.2283 140.128L87.4662 99.7379C87.6338 99.0686 87.4327 98.3659 86.9468 97.8806L76.0721 87.1389H114.544L127.463 143.307H22.302Z" fill="#4B4B4B"/>
<path d="M37.0811 48.2209C37.433 48.338 37.7849 48.3882 38.12 48.3882C39.5275 48.3882 40.8345 47.4847 41.3036 46.0792C41.8733 44.3224 40.9182 42.4317 39.1588 41.8628C33.7634 40.106 28.0161 33.8316 28.0161 25.6999C28.0161 15.2761 36.6287 6.79308 47.2017 6.79308C53.2004 6.79308 58.1602 9.7546 61.9806 15.6107C62.9859 17.1668 65.0637 17.6018 66.622 16.5979C68.1803 15.594 68.616 13.5192 67.6106 11.9632C62.5503 4.19966 55.496 0.10039 47.2017 0.10039C32.9256 0.10039 21.3137 11.5784 21.3137 25.6999C21.3137 37.111 29.2393 45.6609 37.0811 48.2209ZM22.1347 101.645C22.1347 99.8048 20.6267 98.299 18.7835 98.299H7.17158L17.242 55.8171H38.9913C40.8344 55.8171 42.3425 54.3112 42.3425 52.4707C42.3425 50.6302 40.8344 49.1244 38.9913 49.1244H16.3371C13.4719 49.1244 11.126 51.1656 10.8412 53.7758L0 99.4702V99.855C0 102.699 2.47989 104.992 5.51273 104.992H18.7835C20.6267 104.992 22.1347 103.503 22.1347 101.645ZM83.1769 16.5142C84.7353 17.5181 86.7962 17.0831 87.8184 15.5271C91.6387 9.67094 96.6153 6.69269 102.614 6.69269C113.204 6.69269 121.816 15.1757 121.816 25.6163C121.816 33.7646 116.069 40.039 110.657 41.7959C108.897 42.3648 107.942 44.2554 108.512 46.0123C108.981 47.4177 110.288 48.3213 111.696 48.3213C112.048 48.3213 112.399 48.2711 112.735 48.1539C120.576 45.594 128.519 37.0273 128.519 25.6163C128.519 11.4947 116.89 0 102.614 0C94.3197 0 87.2654 4.11601 82.2051 11.8795C81.183 13.4356 81.6186 15.5103 83.1769 16.5142ZM139.159 53.7256C138.891 51.1155 136.528 49.0742 133.663 49.0742H110.975C109.132 49.0742 107.624 50.58 107.624 52.4205C107.624 54.261 109.132 55.7669 110.975 55.7669H132.741L142.828 98.299H131.2C129.357 98.299 127.849 99.8048 127.849 101.645C127.849 103.486 129.357 104.992 131.2 104.992H144.487C147.537 104.992 150 102.683 150 99.8383V99.4534L139.159 53.7256Z" fill="#4B4B4B"/>
</svg>
