<svg width="32" height="32" viewBox="0 0 32 32" fill="none" xmlns="http://www.w3.org/2000/svg">
<path fill-rule="evenodd" clip-rule="evenodd" d="M7.2 9C6.45046 9 6 9.53984 6 10V22C6 22.4602 6.45046 23 7.2 23H24.8C25.5495 23 26 22.4602 26 22V10C26 9.53984 25.5495 9 24.8 9H7.2ZM4 10C4 8.26016 5.52954 7 7.2 7H24.8C26.4705 7 28 8.26016 28 10V22C28 23.7398 26.4705 25 24.8 25H7.2C5.52954 25 4 23.7398 4 22V10Z" fill="white"/>
<path fill-rule="evenodd" clip-rule="evenodd" d="M4.15646 9.46313C4.45297 8.99719 5.07106 8.85983 5.537 9.15634L16.0001 15.8147L26.4633 9.15634C26.9292 8.85983 27.5473 8.99719 27.8438 9.46313C28.1403 9.92907 28.0029 10.5472 27.537 10.8437L16.537 17.8437C16.2094 18.0521 15.7908 18.0521 15.4633 17.8437L4.46325 10.8437C3.99731 10.5472 3.85996 9.92907 4.15646 9.46313Z" fill="white"/>
</svg>
