<svg width="215" height="75" viewBox="0 0 215 75" fill="none" xmlns="http://www.w3.org/2000/svg">
<g filter="url(#filter0_i_905_3870)">
<path d="M78.9435 64.0937C85.5924 64.694 89.3593 64.9523 96.055 65.3966L103.103 64.442C101.08 64.2092 99.9329 64.0929 97.9261 63.8417C96.5831 63.6736 95.8386 63.5707 94.5061 63.3922C91.7125 63.0179 90.156 62.7987 87.3897 62.4008C85.2888 62.0986 84.0976 61.9381 82.0298 61.6112C79.2361 61.1694 77.6796 60.9089 75.0088 60.3952C73.1684 60.0412 72.155 59.8321 70.3916 59.4433C68.6184 59.0524 67.6241 58.8303 65.9607 58.3998C64.9241 58.1315 63.3773 57.6911 63.3773 57.6911C63.3773 57.6911 61.8082 57.2112 60.8876 56.8855C60.0512 56.5895 59.6 56.419 58.8606 56.1061C57.9514 55.7213 57.416 55.5036 56.7439 55.0916C56.0131 54.6437 55.7985 54.3776 55.3699 53.9149C55.1187 53.6438 54.9919 53.4911 54.8231 53.2195C54.6889 53.0036 54.624 52.8822 54.5523 52.6675C54.3968 52.2018 54.4248 51.9423 54.567 51.4929C54.6889 51.1073 54.8264 50.8957 55.1345 50.5285C55.6186 49.9515 56.0639 49.6469 56.9112 49.1216C58.2509 48.291 63.5779 46.7149 63.5779 46.7149C63.5779 46.7149 55.522 47.6234 52.1103 48.0571C50.6639 48.2409 49.8374 48.3396 48.4932 48.5674C47.0517 48.8117 46.3099 48.9808 45.0309 49.2724L44.966 49.2872C43.2686 49.6742 42.3452 49.9039 40.879 50.3586C39.7017 50.7237 38.981 50.9198 38.0891 51.3503C37.1761 51.7909 36.8214 52.0722 36.3147 52.5784C35.8783 53.0143 35.7154 53.2715 35.5595 53.7366C35.3928 54.2342 35.2387 54.52 35.5432 55.0389C35.7229 55.345 35.904 55.5185 36.2741 55.8214C36.6538 56.1323 36.93 56.3048 37.4678 56.6046C38.0091 56.9064 38.3526 57.0732 39.0323 57.3578C39.8994 57.7208 40.4976 57.9064 41.521 58.24C42.8769 58.682 43.6825 58.9226 45.2108 59.3181C48.2967 60.1168 50.372 60.4493 53.8917 61.0627C58.0394 61.7856 60.5128 62.1085 64.889 62.6576C70.2855 63.3346 73.4209 63.595 78.9435 64.0937Z" fill="url(#paint0_linear_905_3870)"/>
<path d="M61.5372 66.2028C69.6874 66.5764 74.2928 66.7013 82.4767 66.9079C84.2677 66.9531 85.8841 66.9903 87.4033 67.022L96.3371 65.9818C94.2045 65.8433 93.0111 65.7624 90.8817 65.6197C88.3943 65.4529 86.9863 65.375 84.516 65.1881C82.8628 65.063 81.9449 64.9834 80.303 64.8469C76.8605 64.5608 74.941 64.39 71.5282 64.0777C68.9363 63.8406 67.4682 63.7177 64.9129 63.453C61.4604 63.0954 59.5347 62.8809 56.2206 62.4423C53.9369 62.1401 52.6774 61.9586 50.4819 61.6165C48.2742 61.2725 47.0359 61.0766 44.9555 60.6863C43.6591 60.4431 41.7186 60.0378 41.7186 60.0378C41.7186 60.0378 39.7452 59.5916 38.5811 59.283C37.5233 59.0027 36.951 58.8399 36.0083 58.5378C34.8491 58.1662 34.1678 57.9568 33.2921 57.5472C32.34 57.1018 32.0405 56.8285 31.4525 56.3555C31.108 56.0784 30.9318 55.9217 30.687 55.6409C30.4924 55.4176 30.3958 55.2917 30.2771 55.0672C30.0199 54.5803 30.0156 54.3044 30.1216 53.823C30.2126 53.4101 30.348 53.1807 30.6675 52.7797C31.1693 52.1498 31.6642 51.8098 32.6141 51.2203C34.1159 50.2882 40.3422 48.4097 40.3422 48.4097C40.3422 48.4097 30.7087 49.689 26.6359 50.2825C24.9094 50.5341 23.9219 50.6711 22.3256 50.9652C20.6139 51.2806 19.7394 51.4889 18.2318 51.848L18.2317 51.848L18.1552 51.8663C16.1542 52.3429 15.0685 52.6224 13.3578 53.1616C11.9843 53.5945 11.1394 53.8305 10.1215 54.3213C9.07945 54.8238 8.6909 55.1356 8.15121 55.6914C7.68646 56.1701 7.52683 56.4488 7.4065 56.9473C7.27778 57.4806 7.13306 57.7893 7.5789 58.3267C7.84189 58.6437 8.08717 58.8202 8.58053 59.1263C9.0868 59.4404 9.44713 59.6122 10.1435 59.9084C10.8443 60.2066 11.2854 60.3696 12.1515 60.6441C13.2564 60.9943 14.0092 61.1672 15.2992 61.4801C17.0084 61.8946 18.0208 62.1176 19.9321 62.4761C23.7915 63.2 26.3569 63.4703 30.715 63.981C35.8507 64.5828 38.8972 64.8273 44.2844 65.2361C50.9274 65.7403 54.7675 65.8924 61.5372 66.2028Z" fill="url(#paint1_linear_905_3870)"/>
<path d="M81.7471 60.3375C86.1983 61.2008 88.8101 61.5833 93.4028 62.2928C97.8357 62.9777 100.738 63.3774 104.6 63.8783L109.568 62.9706C108.46 62.7561 107.847 62.6285 106.751 62.4052C104.451 61.937 103.172 61.6665 100.9 61.1784C99.1742 60.8077 98.1938 60.6073 96.5012 60.216C94.2144 59.6874 92.9431 59.3799 90.7746 58.7926C89.2803 58.388 88.4602 58.1524 87.0379 57.7202C85.6078 57.2857 84.8064 57.0394 83.4771 56.5746C82.6487 56.2849 81.4203 55.8168 81.4203 55.8168C81.4203 55.8168 80.1806 55.3122 79.4618 54.9767C78.8087 54.6718 78.4584 54.4975 77.8909 54.182C77.1931 53.7941 76.7805 53.5736 76.2893 53.1726C75.7551 52.7366 75.6242 52.488 75.3494 52.0531C75.1884 51.7983 75.1102 51.6555 75.0191 51.4042C74.9468 51.2044 74.915 51.0926 74.8955 50.8968C74.8532 50.4723 74.927 50.2412 75.1343 49.8454C75.3121 49.5058 75.4695 49.3228 75.8019 49.0085C76.324 48.5148 76.7607 48.2631 77.5813 47.8329C78.8787 47.1526 83.7049 45.9944 83.7049 45.9944C83.7049 45.9944 76.6905 46.4248 73.7103 46.6508C72.447 46.7467 71.7263 46.7957 70.5411 46.9358C69.2703 47.086 68.6079 47.2022 67.4659 47.4025L67.4079 47.4127C65.8922 47.6786 65.064 47.8404 63.7316 48.1779C62.6618 48.4489 62.0122 48.5902 61.172 48.9334C60.312 49.2846 59.9566 49.5197 59.4289 49.949C58.9745 50.3187 58.7866 50.5413 58.5647 50.9505C58.3273 51.3883 58.1414 51.637 58.3 52.1163C58.3936 52.399 58.514 52.5631 58.7698 52.852C59.0323 53.1485 59.2335 53.3162 59.6324 53.6104C60.0338 53.9065 60.2933 54.0722 60.8156 54.3595C61.4818 54.7259 61.954 54.9207 62.7585 55.2682C63.8245 55.7287 64.4622 55.9825 65.6835 56.4096C68.1496 57.2719 69.8475 57.6685 72.7175 58.3855C76.0997 59.2304 78.1374 59.6374 81.7471 60.3375Z" fill="url(#paint2_linear_905_3870)"/>
</g>
<g filter="url(#filter1_i_905_3870)">
<path d="M101.076 67.1163C96.1263 67.4035 88.404 67.8078 88.404 67.8078C88.404 67.8078 93.1797 67.2146 96.2567 66.8558C98.4169 66.6039 99.6383 66.4766 101.801 66.2274C103.643 66.015 104.675 65.8946 106.513 65.6766C108.246 65.4709 109.216 65.3527 110.947 65.1432C112.969 64.8985 114.115 64.7755 116.121 64.5124C117.463 64.3364 118.206 64.2291 119.538 64.0427C122.329 63.652 123.884 63.4236 126.648 63.0094C128.747 62.6949 129.938 62.5274 132.003 62.1883C134.794 61.7301 136.349 61.4604 139.017 60.931C140.855 60.5662 141.868 60.3511 143.629 59.952C145.4 59.5506 146.392 59.3227 148.053 58.8824C149.088 58.608 150.633 58.1584 150.633 58.1584C150.633 58.1584 152.199 57.6693 153.117 57.3382C153.952 57.0373 154.402 56.8641 155.14 56.5469C156.047 56.1567 156.581 55.9359 157.25 55.52C157.979 55.0677 158.192 54.8003 158.618 54.3351C158.867 54.0626 158.993 53.9091 159.16 53.6365C159.293 53.4198 159.357 53.2981 159.428 53.083C159.581 52.6163 159.551 52.357 159.406 51.9084C159.282 51.5236 159.143 51.3128 158.833 50.9474C158.345 50.3733 157.898 50.0713 157.048 49.551C155.703 48.7283 150.367 47.1836 150.367 47.1836C150.367 47.1836 158.428 48.0447 161.843 48.4582C163.29 48.6336 164.117 48.7273 165.463 48.9473C166.905 49.1831 167.648 49.3478 168.929 49.6319L168.994 49.6463C170.694 50.0233 171.618 50.2476 173.087 50.6936C174.267 51.0518 174.988 51.2436 175.883 51.6688C176.799 52.1041 177.155 52.3833 177.665 52.8865C178.103 53.3198 178.268 53.576 178.427 54.0402C178.596 54.5368 178.752 54.8217 178.45 55.3424C178.273 55.6495 178.092 55.8241 177.724 56.1292C177.346 56.4423 177.071 56.6164 176.535 56.9194C175.996 57.2244 175.653 57.3932 174.975 57.6818C174.11 58.0499 173.513 58.239 172.492 58.5786C171.138 59.0286 170.334 59.274 168.808 59.6785C165.727 60.4953 163.654 60.84 160.138 61.4741C155.994 62.2214 153.523 62.5589 149.15 63.1338C143.758 63.8426 140.624 64.1214 135.104 64.6526C128.459 65.2921 124.694 65.5725 118.001 66.0562C111.396 66.5335 107.685 66.7328 101.076 67.1163Z" fill="url(#paint3_linear_905_3870)"/>
<path d="M110.92 67.959C104.879 68.0726 95.0928 68.0881 95.0928 68.0881C95.0928 68.0881 101.337 67.759 105.119 67.4975C107.774 67.3138 109.273 67.2259 111.93 67.0452C114.194 66.8912 115.463 66.8034 117.722 66.6431C119.854 66.492 121.047 66.4041 123.175 66.2488C125.662 66.0674 127.069 65.9812 129.538 65.7798C131.191 65.645 132.108 65.56 133.749 65.4138C137.19 65.1074 139.108 64.9253 142.519 64.593C145.11 64.3405 146.577 64.209 149.131 63.9293C152.581 63.5514 154.506 63.3255 157.817 62.8674C160.099 62.5517 161.357 62.3628 163.551 62.0078C165.756 61.6509 166.994 61.4476 169.072 61.0452C170.367 60.7943 172.305 60.3776 172.305 60.3776C172.305 60.3776 174.275 59.9197 175.438 59.6043C176.494 59.3177 177.065 59.1516 178.006 58.8439C179.163 58.4656 179.843 58.2522 180.716 57.8374C181.666 57.3864 181.964 57.1113 182.549 56.6349C182.892 56.3558 183.067 56.198 183.31 55.9157C183.503 55.6913 183.599 55.5649 183.717 55.3396C183.971 54.8512 183.974 54.5754 183.865 54.0946C183.771 53.6822 183.635 53.4536 183.313 53.0545C182.807 52.4276 182.31 52.0905 181.357 51.5066C179.85 50.5833 173.613 48.7416 173.613 48.7416C173.613 48.7416 183.253 49.9641 187.33 50.5336C189.058 50.775 190.046 50.9062 191.644 51.191C193.357 51.4963 194.233 51.6994 195.743 52.0496L195.82 52.0674C197.823 52.5322 198.911 52.8054 200.624 53.3344C202 53.7593 202.847 53.9903 203.868 54.4751C204.913 54.9714 205.303 55.2809 205.846 55.8336C206.313 56.3095 206.475 56.5872 206.598 57.0851C206.73 57.6176 206.876 57.9254 206.434 58.4654C206.173 58.784 205.928 58.9619 205.437 59.2709C204.932 59.588 204.573 59.7619 203.878 60.0623C203.179 60.3645 202.739 60.5302 201.875 60.8098C200.772 61.1664 200.02 61.3438 198.732 61.6642C197.025 62.0888 196.014 62.3177 194.105 62.6875C190.25 63.4342 187.686 63.7195 183.331 64.2559C178.199 64.888 175.154 65.1504 169.77 65.5909C163.13 66.1342 159.29 66.3089 152.523 66.6591C144.375 67.0807 139.77 67.2328 131.588 67.4875C123.513 67.7389 118.987 67.8072 110.92 67.959Z" fill="url(#paint4_linear_905_3870)"/>
<path d="M92.1909 66.7521C88.0396 67.2434 82.2874 67.7334 82.2874 67.7334C82.2874 67.7334 85.499 67.2137 88.0447 66.7471C89.8321 66.4194 90.8455 66.2477 92.635 65.9223C94.1597 65.6451 95.0134 65.4885 96.5333 65.2064C97.9672 64.9403 98.7686 64.7886 100.199 64.5192C101.87 64.2046 102.821 64.0402 104.474 63.7099C105.581 63.4889 106.192 63.3576 107.288 63.1279C109.585 62.6461 110.862 62.3681 113.131 61.8667C114.855 61.4858 115.834 61.2797 117.524 60.8784C119.808 60.3363 121.077 60.0213 123.242 59.4213C124.734 59.0078 125.553 58.7674 126.972 58.3269C128.4 57.8839 129.2 57.633 130.526 57.1603C131.353 56.8658 132.579 56.3904 132.579 56.3904C132.579 56.3904 133.816 55.8786 134.532 55.5388C135.184 55.23 135.533 55.0538 136.098 54.7349C136.794 54.3429 137.205 54.1199 137.694 53.7161C138.226 53.2769 138.355 53.0275 138.627 52.5911C138.787 52.3354 138.864 52.192 138.954 51.9402C139.025 51.74 139.056 51.628 139.074 51.4321C139.114 51.0073 139.039 50.7767 138.83 50.3821C138.65 50.0436 138.491 49.8615 138.157 49.5492C137.632 49.0585 137.194 48.8094 136.371 48.384C135.069 47.7114 130.236 46.5817 130.236 46.5817C130.236 46.5817 137.253 46.9707 140.235 47.1792C141.499 47.2676 142.219 47.3124 143.405 47.4455C144.677 47.5882 145.34 47.7005 146.483 47.8941L146.541 47.904C148.059 48.1609 148.888 48.3178 150.222 48.6475C151.294 48.9122 151.944 49.0497 152.786 49.3879C153.648 49.7341 154.005 49.9671 154.535 50.3933C154.992 50.7603 155.181 50.9817 155.405 51.3897C155.645 51.826 155.833 52.0736 155.677 52.5539C155.585 52.8371 155.466 53.0019 155.211 53.2923C154.951 53.5904 154.75 53.7592 154.353 54.0558C153.954 54.3542 153.695 54.5215 153.175 54.8118C152.511 55.1822 152.039 55.3797 151.237 55.732C150.174 56.1987 149.538 56.4563 148.319 56.8905C145.858 57.7673 144.162 58.1739 141.296 58.9078C137.919 59.7726 135.884 60.1917 132.279 60.913C127.833 61.8025 125.223 62.2004 120.635 62.9369C115.111 63.8237 111.965 64.2528 106.37 65.0025C100.849 65.7422 97.7337 66.0961 92.1909 66.7521Z" fill="url(#paint5_linear_905_3870)"/>
</g>
<path fill-rule="evenodd" clip-rule="evenodd" d="M101.283 6.00731L94.9476 8.87138L94.2489 13.8722L91.4351 16.7324L85.8028 18.1671L82.993 24.5988L85.8154 29.5957L85.8193 33.1671L83.0071 37.4559L85.831 43.8814L91.4663 45.3038L94.2864 48.1578L94.9961 53.1571L101.337 56.0073L106.264 53.1447L110.489 53.1401L115.422 55.9919L121.757 53.1278L122.455 48.127L125.269 45.2668L130.901 43.8321L133.007 37.4012L130.185 32.4043L130.181 28.8328L132.992 23.8298L130.169 18.1186L125.238 16.6954L122.418 13.8413L121.004 8.84287L114.663 5.99266L110.441 8.85443L106.215 8.85905L101.283 6.00731ZM108.014 43.3684C114.844 43.3609 120.376 37.8173 120.368 30.9864C120.361 24.1555 114.817 18.6241 107.986 18.6316C101.156 18.639 95.6241 24.1826 95.6316 31.0135C95.6391 37.8444 101.183 43.3759 108.014 43.3684Z" fill="#EDAC1A"/>
<defs>
<filter id="filter0_i_905_3870" x="7.27734" y="45.9944" width="102.29" height="22.0276" filterUnits="userSpaceOnUse" color-interpolation-filters="sRGB">
<feFlood flood-opacity="0" result="BackgroundImageFix"/>
<feBlend mode="normal" in="SourceGraphic" in2="BackgroundImageFix" result="shape"/>
<feColorMatrix in="SourceAlpha" type="matrix" values="0 0 0 0 0 0 0 0 0 0 0 0 0 0 0 0 0 0 127 0" result="hardAlpha"/>
<feOffset dy="1"/>
<feGaussianBlur stdDeviation="0.5"/>
<feComposite in2="hardAlpha" operator="arithmetic" k2="-1" k3="1"/>
<feColorMatrix type="matrix" values="0 0 0 0 0 0 0 0 0 0 0 0 0 0 0 0 0 0 0.1 0"/>
<feBlend mode="luminosity" in2="shape" result="effect1_innerShadow_905_3870"/>
</filter>
<filter id="filter1_i_905_3870" x="82.2876" y="46.5817" width="124.444" height="22.5065" filterUnits="userSpaceOnUse" color-interpolation-filters="sRGB">
<feFlood flood-opacity="0" result="BackgroundImageFix"/>
<feBlend mode="normal" in="SourceGraphic" in2="BackgroundImageFix" result="shape"/>
<feColorMatrix in="SourceAlpha" type="matrix" values="0 0 0 0 0 0 0 0 0 0 0 0 0 0 0 0 0 0 127 0" result="hardAlpha"/>
<feOffset dy="1"/>
<feGaussianBlur stdDeviation="0.5"/>
<feComposite in2="hardAlpha" operator="arithmetic" k2="-1" k3="1"/>
<feColorMatrix type="matrix" values="0 0 0 0 0 0 0 0 0 0 0 0 0 0 0 0 0 0 0.1 0"/>
<feBlend mode="luminosity" in2="shape" result="effect1_innerShadow_905_3870"/>
</filter>
<linearGradient id="paint0_linear_905_3870" x1="0.452786" y1="51.348" x2="109.872" y2="56.8422" gradientUnits="userSpaceOnUse">
<stop offset="0.0048071" stop-color="#026C00"/>
<stop offset="1" stop-color="#9CCC65"/>
</linearGradient>
<linearGradient id="paint1_linear_905_3870" x1="0.452786" y1="51.348" x2="109.872" y2="56.8422" gradientUnits="userSpaceOnUse">
<stop offset="0.0048071" stop-color="#026C00"/>
<stop offset="1" stop-color="#9CCC65"/>
</linearGradient>
<linearGradient id="paint2_linear_905_3870" x1="0.452786" y1="51.348" x2="109.872" y2="56.8422" gradientUnits="userSpaceOnUse">
<stop offset="0.0048071" stop-color="#026C00"/>
<stop offset="1" stop-color="#9CCC65"/>
</linearGradient>
<linearGradient id="paint3_linear_905_3870" x1="215.072" y1="51.3312" x2="81.7905" y2="58.8107" gradientUnits="userSpaceOnUse">
<stop offset="0.0048071" stop-color="#026C00"/>
<stop offset="1" stop-color="#9CCC65"/>
</linearGradient>
<linearGradient id="paint4_linear_905_3870" x1="215.072" y1="51.3312" x2="81.7905" y2="58.8107" gradientUnits="userSpaceOnUse">
<stop offset="0.0048071" stop-color="#026C00"/>
<stop offset="1" stop-color="#9CCC65"/>
</linearGradient>
<linearGradient id="paint5_linear_905_3870" x1="215.072" y1="51.3312" x2="81.7905" y2="58.8107" gradientUnits="userSpaceOnUse">
<stop offset="0.0048071" stop-color="#026C00"/>
<stop offset="1" stop-color="#9CCC65"/>
</linearGradient>
</defs>
</svg>
