<svg width="150" height="150" viewBox="0 0 150 150" fill="none" xmlns="http://www.w3.org/2000/svg">
<path d="M146.457 129.321L106.352 89.2166C105.185 88.05 103.294 88.05 102.126 89.2166L97.9399 93.4028L88.1264 83.5892C95.9442 74.7146 100.694 63.0765 100.694 50.3476C100.695 22.5858 78.1092 0 50.3475 0C22.5858 0 0 22.5858 0 50.3476C0 78.1093 22.5858 100.695 50.3475 100.695C63.2346 100.695 75.0043 95.8263 83.919 87.8338L93.7139 97.6289L89.2165 102.126C88.0496 103.293 88.0496 105.185 89.2165 106.352L129.321 146.457C131.683 148.819 134.786 150 137.889 150C140.992 150 144.095 148.819 146.457 146.457C151.181 141.732 151.181 134.046 146.457 129.321ZM47.7424 58.2255L32.3654 42.8481C31.1985 41.6818 29.3068 41.6815 28.1393 42.8481C26.9724 44.015 26.9724 45.907 28.1393 47.0742L43.5166 62.4516H42.6585C32.2678 62.4516 23.8139 53.9977 23.8139 43.6069V38.5227H28.8981C39.2891 38.5227 47.7427 46.9767 47.7427 57.3674L47.7424 58.2255ZM65.6478 50.5225C64.4809 49.3559 62.5889 49.3559 61.4217 50.5225L53.7187 58.2258V57.368C53.7187 46.9772 62.1723 38.5233 72.5633 38.5233H77.6475V43.6075C77.6475 53.9982 69.1936 62.4521 58.8029 62.4521H57.9448L65.6481 54.7488C66.8147 53.5813 66.8147 51.6894 65.6478 50.5225ZM53.7187 94.5914V68.4275H58.8029C72.4892 68.4275 83.6237 57.2927 83.6237 43.6066V35.5345C83.6237 33.8845 82.2857 32.5462 80.6354 32.5462H72.5633C63.1446 32.5462 54.9351 37.8196 50.7307 45.5692C46.5263 37.8199 38.3167 32.5462 28.8981 32.5462H20.8257C19.1754 32.5462 17.8374 33.8842 17.8374 35.5345V43.6066C17.8374 57.293 28.9719 68.4275 42.6582 68.4275H47.7424V94.64C24.4842 93.2868 5.97626 73.9389 5.97626 50.3476C5.97626 25.8814 25.8811 5.97627 50.3475 5.97627C74.8139 5.97627 94.7187 25.8811 94.7187 50.3473C94.7184 73.6799 76.6159 92.8632 53.7187 94.5914ZM142.231 142.231C139.836 144.626 135.941 144.625 133.547 142.231L95.5552 104.239L104.239 95.5556L142.231 133.547C144.625 135.941 144.625 139.837 142.231 142.231Z" fill="#119C0E"/>
<path d="M72.7243 43.5764C71.5574 42.4098 69.6654 42.4098 68.4982 43.5764L67.6779 44.3967C66.511 45.5636 66.511 47.4556 67.6779 48.6228C68.2615 49.2061 69.0261 49.4979 69.7911 49.4979C70.5557 49.4979 71.3207 49.2061 71.904 48.6228L72.7243 47.8024C73.8909 46.6356 73.8909 44.7436 72.7243 43.5764Z" fill="#4B4B4B"/>
</svg>
