<svg width="120" height="120" viewBox="0 0 120 120" fill="none" xmlns="http://www.w3.org/2000/svg">
<path d="M104.16 70.2236C101.459 66.626 98.7568 66.626 92.1522 70.0737L79.2434 78.0184C77.4422 79.0676 73.3895 79.3674 69.637 79.3674C70.3875 78.0184 70.0873 76.3694 68.7364 74.4208C66.3348 70.9731 62.282 68.8747 57.929 68.8747H52.0751C48.9229 68.8747 45.9208 67.9753 43.5193 66.1765C38.1031 62.12 29.6337 66.534 25.5071 69.1668V66.0267H15V105H25.5071V100.503H45.0202C48.0223 100.503 51.1745 100.203 54.1764 100.053L73.6895 97.0554C74.4401 97.0554 75.1905 96.9056 75.791 96.7556C77.5922 96.4557 79.2434 95.5563 80.7444 94.2073L103.41 76.2196C105.211 74.7205 105.511 72.0223 104.16 70.2236ZM22.5051 102.002H18.0021V69.0243H22.5051V71.2728V100.503V102.002ZM101.609 74.121L78.7933 91.8088L78.6433 91.9586C77.7426 93.0078 76.5418 93.6075 75.3411 93.7574H75.191C74.5907 93.9072 74.1404 93.9072 73.5399 93.9072L53.7264 96.9052C50.8745 97.3549 47.8725 97.5048 45.0206 97.5048H25.5072V72.7717C29.1097 70.2234 37.5154 65.4268 41.7182 68.7245C44.5701 70.8231 48.3228 72.0222 52.0752 72.0222H57.9292C61.3816 72.0222 64.5337 73.5211 66.485 76.3692C67.0854 77.2686 67.2356 78.168 67.0854 78.4679C66.6351 79.2174 64.8338 79.5171 62.8826 79.6671C62.2822 79.6671 61.6817 79.6671 61.2314 79.6671H49.3734C44.7203 79.6671 41.8683 81.9156 41.8683 85.6629C41.8683 86.5623 42.4686 87.1618 43.3692 87.1618C44.2698 87.1618 44.8702 86.5623 44.8702 85.6629C44.8702 84.9134 44.8702 82.6649 49.3732 82.6649H61.0812C61.5315 82.6649 62.1318 82.6649 63.0324 82.6649C63.1825 82.6649 63.4827 82.6649 63.783 82.6649C70.8378 82.8148 77.4422 82.6649 80.8946 80.8662L93.8034 72.9215C100.108 69.7737 100.708 70.5233 101.909 72.322C102.209 72.7719 102.209 73.6713 101.609 74.121Z" fill="black"/>
<path d="M42.0185 42.043C51.9253 42.043 60.0307 33.9485 60.0307 24.0553C60.0307 23.1559 59.4304 22.5564 58.5298 22.5564C48.6231 22.5564 40.5176 30.6508 40.5176 40.5441C40.5176 41.4433 41.1179 42.043 42.0185 42.043ZM56.8786 25.7041C56.2783 32.5993 50.5743 38.2954 43.5195 39.045C44.2701 31.9997 49.8239 26.4536 56.8786 25.7041Z" fill="#119C0E"/>
<path d="M48.9229 47.7389C48.1723 48.0388 47.722 48.9382 48.0223 49.6876C49.8235 54.1845 53.1257 57.782 57.4787 59.7306C59.8803 60.7798 62.4321 61.3795 64.9838 61.3795C67.0853 61.3795 69.1866 60.9298 71.1381 60.1803C71.8886 59.8804 72.3389 58.9811 72.0387 58.2317C68.5861 48.9382 58.2291 44.2913 48.9229 47.7389ZM58.8296 56.8826C55.6775 55.5335 53.1257 52.9852 51.6247 49.9874C54.9269 49.088 58.3793 49.3879 61.5314 50.8868C64.6836 52.2359 67.2354 54.7842 68.7363 57.782C65.434 58.6814 61.9817 58.3817 58.8296 56.8826Z" fill="#119C0E"/>
<path d="M69.1867 40.244C69.3368 40.244 69.637 40.244 69.7871 40.0942C73.9898 37.8457 77.142 34.2482 78.6431 29.6014C80.1441 24.9547 79.6938 20.0081 77.4422 15.8108C77.142 15.0613 76.2414 14.7616 75.491 15.2113C71.2882 17.4598 68.1361 21.0573 66.6349 25.7041C65.134 30.3508 65.5843 35.2974 67.8358 39.4947C68.1359 39.9444 68.5862 40.244 69.1867 40.244ZM69.4868 26.6034C70.5374 23.3058 72.6389 20.6076 75.4908 18.6588C76.6917 21.8067 76.8417 25.4042 75.7911 28.7019C74.7404 31.9996 72.6389 34.6977 69.7871 36.6465C68.5862 33.3488 68.4361 29.9011 69.4868 26.6034Z" fill="#119C0E"/>
</svg>
