<svg width="150" height="150" viewBox="0 0 150 150" fill="none" xmlns="http://www.w3.org/2000/svg">
<path d="M115.934 52.5116C119.22 47.3563 123.729 40.3007 123.729 30.4032C123.729 13.6484 111.106 0 95.6179 0C88.1082 0 81.0344 3.18903 75.7878 8.85658C70.5411 3.18903 63.4673 0 55.9577 0C40.4523 0 27.8301 13.6319 27.8301 30.4032C27.8301 40.3007 32.3392 47.3563 35.6247 52.5116C45.4308 67.8619 69.8538 86.7978 70.8931 87.5909C72.3179 88.698 74.0109 89.2763 75.7878 89.2763C77.5646 89.2763 79.2576 88.698 80.6824 87.5909C81.7049 86.7813 106.094 67.9115 115.934 52.5116ZM41.2904 48.9756C38.1223 44.0185 34.5351 38.384 34.5351 30.4032C34.5351 17.2835 44.1401 6.60939 55.9577 6.60939C62.3777 6.60939 68.3955 9.78189 72.4855 15.3007L75.7878 19.7455L79.09 15.3007C83.18 9.78189 89.2146 6.60939 95.6179 6.60939C107.419 6.60939 117.024 17.2835 117.024 30.4032C117.024 38.4005 113.436 44.0185 110.252 48.9756C102.792 60.6742 85.9459 74.8183 79.2911 80.1884V52.5116C80.1293 52.5777 80.9171 52.5942 81.6379 52.5942C86.9516 52.5942 90.4718 51.041 95.0982 46.6788C98.9704 43.0436 101.032 35.4263 101.921 31.1963C102.155 30.1223 101.87 28.9987 101.166 28.156C100.462 27.3133 99.4397 26.8176 98.3334 26.8176C98.2328 26.8176 98.1155 26.8176 98.0149 26.8341C94.8803 27.115 88.9464 28.0403 84.5546 31.2128C81.6379 33.3113 78.7547 37.3761 76.9109 41.3582C76.6091 40.6643 76.3074 40.0364 76.0224 39.5076C73.8433 35.3107 70.5411 31.3615 67.1886 28.9491C62.3107 25.4296 55.7062 24.4217 52.2028 24.1243C50.9624 24.0251 49.7555 24.5208 48.9844 25.4792C48.2636 26.3549 47.9787 27.4951 48.2134 28.6021C50.0069 37.0952 52.5884 42.6636 56.1085 45.6048C61.1205 49.7852 68.2949 51.8672 72.5693 52.2142V80.4528C66.166 75.2974 48.8671 60.8394 41.2904 48.9756Z" fill="#119C0E"/>
<path d="M66.3009 112.591C66.1332 112.426 65.9656 112.293 65.8315 112.161C62.9483 109.418 52.1365 97.9345 48.5661 93.8201C47.8788 93.027 46.2696 90.532 44.8615 88.3178C43.3697 86.0045 41.8443 83.6086 40.5703 81.8902C39.2964 80.1552 38.1565 78.8333 36.9664 77.6932C36.1618 76.9331 35.441 76.3879 34.7034 75.9913C33.4965 75.3634 32.2729 75.0329 31.0827 75.0329C26.7077 75.0329 24.5956 79.0481 24.3609 80.4196C24.2771 80.9318 24.2771 81.4936 24.3442 82.3033C24.5621 84.6992 25.3332 87.0951 26.6071 89.2266L28.7695 92.8783L33.3457 99.7355C33.3624 99.7686 33.396 99.8016 33.4127 99.8512C30.5631 98.3641 27.2609 96.4804 25.8696 94.4811C24.2268 92.1347 22.5673 86.9464 22.0309 85.0462L16.5496 60.674C15.7785 54.9404 11.722 52.908 8.45326 52.908C8.13477 52.908 7.86657 52.9245 7.68218 52.9411C1.84881 53.3542 -0.11241 58.0138 0.00492832 61.1037C0.0719786 66.1433 6.54233 97.4718 7.61513 101.718C8.9729 107.088 12.426 109.997 13.1635 110.575C14.823 111.963 38.408 131.659 40.6541 133.41C41.2744 133.89 41.4923 134.253 41.5593 134.385L42.079 142.73C42.3304 146.811 45.8002 150 49.9574 150H65.0269C69.3852 150 72.9221 146.513 72.9221 142.25V128.305C73.2238 118.82 68.3794 114.458 66.3009 112.591Z" fill="#4B4B4B"/>
<path d="M66.2164 128.139V142.25C66.2164 142.878 65.68 143.39 65.0262 143.39H49.9567C49.3365 143.39 48.8001 142.911 48.7666 142.316L48.2469 133.989C48.2134 132.997 47.7776 130.535 44.7938 128.222C43.0338 126.85 26.1204 112.756 17.4206 105.486L17.253 105.353C17.2362 105.337 14.9397 103.519 14.0848 100.115C12.7941 94.9767 6.67578 64.6065 6.67578 61.0209V60.8722C6.67578 60.8722 6.70931 60.4591 6.86017 60.1287C6.96075 59.9139 7.12837 59.5669 8.16765 59.5008L8.20118 59.5338L8.41909 59.4843C8.80463 59.4843 9.60923 59.4843 9.87743 61.5993L9.89419 61.7645L15.4594 86.5332L15.4929 86.6819C15.7108 87.475 17.6888 94.481 20.287 98.1987C22.8251 101.845 27.8093 104.424 31.5029 106.335L31.6185 106.394C32.641 106.923 33.5294 107.386 34.1831 107.766C34.7028 108.063 35.5912 108.542 36.5802 108.939C37.1501 109.187 37.7703 109.303 38.3738 109.303C40.1003 109.303 41.6592 108.361 42.4638 106.841C43.2517 105.337 43.1343 103.552 42.1789 102.164C42.0113 101.917 41.391 100.76 39.983 97.9674C39.6645 97.323 39.2957 96.6951 38.8934 96.1003L34.4178 89.4083L32.3728 85.9218C31.6185 84.633 31.1491 83.2119 30.9983 81.7909C31.0318 81.7414 31.0821 81.6918 31.1156 81.6753C31.1826 81.6918 31.3335 81.7414 31.5347 81.8405C31.6017 81.8736 31.8196 82.0057 32.289 82.4519C33.1942 83.3111 34.0993 84.3686 35.1386 85.7896C36.2785 87.3428 37.7536 89.6396 39.1951 91.8702L39.2223 91.9125C40.9709 94.6376 42.4858 96.9984 43.4864 98.1326C47.2412 102.445 58.1536 114.028 61.1876 116.92C61.3888 117.102 61.5899 117.283 61.8078 117.482L61.8107 117.484C63.6379 119.137 66.4342 121.665 66.2164 128.139Z" fill="#D9D9D9"/>
<path d="M142.353 53.2719C142.169 53.2554 141.918 53.2388 141.599 53.2388C138.347 53.2388 134.324 55.2712 133.553 60.9553L128.122 85.1126C127.619 86.8806 125.943 92.1351 124.334 94.4484C122.976 96.3981 119.758 98.2488 116.975 99.7193V99.7028L121.467 92.9943L123.663 89.293C124.92 87.178 125.691 84.7987 125.909 82.4193C125.976 81.6096 125.976 81.0478 125.893 80.5356C125.658 79.1642 123.563 75.1655 119.204 75.1655C118.014 75.1655 116.791 75.4794 115.6 76.1073C114.863 76.4874 114.142 77.0326 113.337 77.7927C112.147 78.9163 111.007 80.2547 109.75 81.9566C108.493 83.6585 106.968 86.0379 105.509 88.3347C104.101 90.5158 102.509 93.0108 101.838 93.7874C98.2847 97.8687 87.5734 109.237 84.7238 111.947C84.5897 112.079 84.422 112.211 84.2544 112.376C82.1926 114.227 77.3818 118.556 77.6835 127.974V141.788C77.6835 146.051 81.2036 149.505 85.5284 149.505H100.464C104.604 149.505 108.04 146.332 108.309 142.267L108.828 134.006C108.895 133.873 109.113 133.526 109.717 133.064C111.963 131.329 135.33 111.798 136.956 110.427C137.693 109.848 141.13 106.957 142.471 101.636C143.527 97.4226 149.947 66.3915 149.997 61.3849C150.098 58.3115 148.153 53.685 142.353 53.2719Z" fill="#4B4B4B"/>
<path d="M143.275 61.3183C143.275 64.8709 137.224 94.9601 135.933 100.049C135.129 103.271 133 105.056 132.799 105.221L132.648 105.337C124.032 112.541 107.269 126.52 105.526 127.875C102.559 130.172 102.14 132.617 102.106 133.608L101.587 141.854C101.553 142.432 101.05 142.895 100.447 142.895H85.5114C84.8744 142.895 84.3715 142.399 84.3715 141.788V127.792C84.1536 121.381 86.9194 118.886 88.7633 117.234L88.8137 117.188L88.8507 117.154C89.0353 116.986 89.2073 116.829 89.3667 116.672C92.3672 113.813 103.196 102.33 106.9 98.05C107.867 96.9361 109.329 94.671 111.037 92.025L111.158 91.8372C112.566 89.6395 114.041 87.3593 115.164 85.8061C116.187 84.4181 117.075 83.3606 117.98 82.5014C118.433 82.0718 118.668 81.9396 118.718 81.9065C118.902 81.8074 119.036 81.7578 119.104 81.7413C119.137 81.7744 119.171 81.8074 119.187 81.8405C119.053 83.2284 118.584 84.6329 117.846 85.9052L115.801 89.3586L111.359 96.0011C110.957 96.5959 110.605 97.2238 110.286 97.8517C108.895 100.611 108.275 101.768 108.107 102.016C107.135 103.404 107.034 105.188 107.822 106.675C108.627 108.195 110.186 109.137 111.896 109.137C112.516 109.137 113.119 109.022 113.689 108.774C114.661 108.377 115.55 107.898 116.053 107.601C116.706 107.22 117.578 106.758 118.601 106.246C122.272 104.362 127.284 101.768 129.832 98.1161C132.413 94.4313 134.374 87.475 134.592 86.6818L140.157 62.0784L140.174 61.9132C140.426 59.9138 141.163 59.8477 141.549 59.8477L141.834 59.8642L141.84 59.8647C142.377 59.8977 143.259 59.952 143.292 61.1861V61.3183H143.275Z" fill="#D9D9D9"/>
</svg>
