<svg width="120" height="120" viewBox="0 0 120 120" fill="none" xmlns="http://www.w3.org/2000/svg">
<path d="M113.166 81.1223H112.983C112.616 80.2039 112.066 79.1018 111.516 77.9998C112.25 77.2652 112.25 76.1631 111.516 75.4283L107.85 71.7547C107.116 71.0201 106.016 71.0201 105.283 71.7547C104.183 71.2037 103.083 70.6527 102.166 70.2853V70.1017C102.166 68.9996 101.433 68.265 100.333 68.265H92.9997C91.8997 68.265 91.1665 68.9996 91.1665 70.1017V70.2853C90.2497 70.6527 89.1497 71.2037 88.0497 71.7547C87.3165 71.0201 86.2165 71.0201 85.483 71.7547L81.8163 75.4283C81.083 76.1629 81.083 77.265 81.8163 77.9998C81.2663 79.1018 80.7163 80.2039 80.3495 81.1223H80.1663C79.0663 81.1223 78.333 81.8569 78.333 82.959V90.3061C78.333 91.4081 79.0663 92.1427 80.1663 92.1427H80.3495C80.7163 93.0612 81.2663 94.1632 81.8163 95.2653C81.083 95.9999 81.083 97.1019 81.8163 97.8368L85.483 101.51C86.2163 102.245 87.3163 102.245 88.0497 101.51C89.1497 102.061 90.2497 102.612 91.1665 102.98V103.163C91.1665 104.265 91.8997 105 92.9997 105H100.333C101.433 105 102.166 104.265 102.166 103.163V102.98C103.083 102.612 104.183 102.061 105.283 101.51C106.016 102.245 107.116 102.245 107.85 101.51L111.516 97.8368C112.25 97.1021 112.25 96.0001 111.516 95.2653C112.066 94.1632 112.616 93.0612 112.983 92.1427H113.166C114.266 92.1427 115 91.4081 115 90.3061V82.9592C115 81.8572 114.266 81.1223 113.166 81.1223ZM111.333 88.4694C110.6 88.653 110.05 89.0204 109.866 89.755C109.5 90.8571 108.583 92.6938 107.483 94.3468C107.116 94.8978 107.116 95.8163 107.483 96.3673L106.383 97.4693C105.833 97.1019 104.916 97.1019 104.366 97.4693C102.9 98.5714 100.883 99.4898 99.783 99.857C99.0497 100.041 98.683 100.592 98.4997 101.326H94.833C94.6497 100.592 94.283 100.041 93.5497 99.857C92.4497 99.4896 90.6165 98.5714 88.9665 97.4693C88.4165 97.1019 87.4997 97.1019 86.9497 97.4693L85.8497 96.3673C86.2165 95.8163 86.2165 94.8978 85.8497 94.3468C84.7497 92.8774 83.833 90.8571 83.4665 89.755C83.2832 89.0204 82.7332 88.653 81.9997 88.4694V84.7959C82.733 84.6123 83.283 84.2448 83.4665 83.5102C83.8332 82.4082 84.7497 80.5715 85.8497 78.9184C86.2165 78.3674 86.2165 77.449 85.8497 76.898L86.9497 75.7959C87.4997 76.1633 88.4165 76.1633 88.9665 75.7959C90.4332 74.6939 92.4497 73.7754 93.5497 73.4082C94.283 73.2246 94.6497 72.6736 94.833 71.9388H98.4997C98.683 72.6734 99.0497 73.2244 99.783 73.4082C100.883 73.7757 102.716 74.6939 104.366 75.7959C104.916 76.1633 105.833 76.1633 106.383 75.7959L107.483 76.898C107.116 77.449 107.116 78.3674 107.483 78.9184C108.583 80.3879 109.5 82.4082 109.866 83.5102C110.05 84.2448 110.6 84.6123 111.333 84.7959V88.4694Z" fill="black"/>
<path d="M96.6667 77.449C91.5335 77.449 87.5 81.4898 87.5 86.6328C87.5 91.7758 91.5333 95.8165 96.6667 95.8165C101.8 95.8165 105.833 91.7758 105.833 86.6328C105.833 81.4898 101.8 77.449 96.6667 77.449ZM96.6667 92.1428C93.55 92.1428 91.1667 89.7551 91.1667 86.6326C91.1667 83.5101 93.55 81.1224 96.6667 81.1224C99.7835 81.1224 102.167 83.5101 102.167 86.6326C102.167 89.7551 99.7833 92.1428 96.6667 92.1428Z" fill="#119C0E"/>
<path d="M75.0075 90.5971C75.032 90.3857 75.0335 90.1625 75.0335 89.9386C74.8502 88.8366 74.6667 87.7345 74.6667 86.6325C74.6667 85.5305 74.85 84.4284 75.2167 83.3264C75.3323 82.9792 75.3018 82.6324 75.1721 82.3311C75.8069 78.9563 77.2264 75.7619 79.4333 73.0406C82.8564 68.7166 87.6085 65.8452 92.9048 64.9175C92.9229 64.9143 92.9411 64.9115 92.9594 64.9085C93.1313 64.8788 93.304 64.8515 93.477 64.8258C93.5268 64.8185 93.5766 64.8116 93.6265 64.8048C93.7698 64.7845 93.9133 64.766 94.0572 64.7486C94.1211 64.7408 94.1851 64.7335 94.2491 64.7264C94.3808 64.7118 94.5129 64.6986 94.6453 64.6864C94.7162 64.6799 94.7871 64.6732 94.8582 64.6672C94.9871 64.6564 95.1166 64.6476 95.246 64.6392C95.3177 64.6345 95.3895 64.6293 95.4615 64.6255C95.5985 64.6179 95.736 64.6125 95.8735 64.6076C95.9369 64.6052 96.0001 64.602 96.0637 64.6003C96.2641 64.5949 96.465 64.5917 96.6663 64.5917C96.8893 64.5917 97.113 64.5964 97.3371 64.6031C97.4034 64.605 97.4698 64.6076 97.5362 64.6104C97.7074 64.6171 97.8789 64.6261 98.0503 64.6369C98.1116 64.6407 98.1728 64.6435 98.2338 64.6481C98.4373 64.6625 98.6407 64.6803 98.8444 64.7004C98.9452 64.7103 99.0455 64.7217 99.1458 64.7331C99.256 64.7453 99.366 64.7589 99.4762 64.7729C99.5955 64.7882 99.7147 64.8032 99.8335 64.8202C99.8486 64.8224 99.8634 64.825 99.8784 64.8274C100.182 64.8719 100.484 64.9231 100.784 64.98C100.838 64.9903 100.893 65.0006 100.947 65.0114C101.377 65.0962 101.803 65.1941 102.226 65.3037C102.348 65.3353 102.469 65.3674 102.59 65.4012C102.663 65.4214 102.737 65.4419 102.81 65.463C104.778 66.0372 106.679 66.9019 108.4 68.0816C108.542 68.1529 108.713 68.2237 108.9 68.2734C109.96 68.9762 110.961 69.7708 111.883 70.6531C112.616 71.3877 113.716 71.3877 114.45 70.6531C115.183 69.9185 115.183 68.8164 114.45 68.0816C113.549 67.214 112.589 66.4184 111.58 65.6989L114.817 57.9796C115 57.7958 115 57.4284 115 57.2448V16.8367C115 15.7346 114.267 15 113.167 15H61.8333C60.7333 15 60 15.7346 60 16.8367V24.1835V46.2244V48.061H49V37.0406C49 35.9386 48.2667 35.204 47.1667 35.204H45.3335V29.6937C45.3335 27.6733 46.9835 26.0202 49.0002 26.0202C50.1002 26.0202 50.8335 25.2856 50.8335 24.1835C50.8335 23.0815 50.1002 22.3469 49.0002 22.3469C44.967 22.3469 41.667 25.653 41.667 29.6937V35.204H39.8337C38.7337 35.204 38.0004 35.9386 38.0004 37.0406V48.061H19.6667C14.5335 48.061 10.5 52.1018 10.5 57.2448V60.9183V76.114C7.119 79.133 5 83.5349 5 88.4694C5 97.6531 12.3333 105 21.5 105C29.4043 105 35.9407 99.5354 37.5924 92.1429H71.6183C71.9578 93.6507 72.4287 95.1204 73.0167 96.5511C73.2 97.2857 73.9335 97.6531 74.6667 97.6531C74.85 97.6531 75.2167 97.6531 75.4 97.4695C76.3167 97.1021 76.6833 96.0001 76.3167 95.0818C75.7156 93.6765 75.2801 92.1614 75.0075 90.5971ZM63.6667 26.0202H78.3335V44.3875H63.6667V26.0202ZM60 51.7346V59.0815H49V51.7346H60ZM41.6667 38.8775H45.3335V49.8979V60.9183V66.4285H41.6667V60.9183V49.8979V38.8775ZM14.1667 57.2448C14.1667 54.1223 16.55 51.7346 19.6667 51.7346H38V59.0815H14.1667V57.2448ZM14.1667 73.5918V62.755H38V68.2652C38 69.3672 38.7333 70.1019 39.8333 70.1019H47.1665C48.2665 70.1019 48.9998 69.3672 48.9998 68.2652V62.755H61.833C62.933 62.755 63.6663 62.0204 63.6663 60.9183V49.8979V48.0613H80.1663C81.2663 48.0613 81.9996 47.3266 81.9996 46.2246V24.1835C81.9996 23.0815 81.2663 22.3469 80.1663 22.3469H63.6663V18.6733H111.333V56.8774L108.432 63.7789C106.868 62.9726 105.222 62.3292 103.527 61.8579C101.899 61.3955 100.236 61.1112 98.563 60.9894C98.5309 60.987 98.4991 60.9846 98.4671 60.9825C98.3064 60.9713 98.1455 60.9612 97.9846 60.9532C97.884 60.948 97.7833 60.9442 97.6825 60.9401C97.5697 60.9358 97.4572 60.9306 97.3444 60.9278C97.1186 60.9218 96.8928 60.9181 96.6665 60.9181C96.4296 60.9181 96.1936 60.922 95.9582 60.9285C95.9045 60.93 95.8512 60.9328 95.7975 60.9347C95.6097 60.9409 95.4221 60.9489 95.2355 60.9592C95.1912 60.9618 95.1471 60.965 95.1031 60.9676C94.8971 60.9801 94.6917 60.995 94.4872 61.0126C94.4702 61.0141 94.4534 61.0156 94.4364 61.0171C83.2003 61.998 73.979 70.3117 71.5992 81.1223H36.35C33.5598 75.7064 28.447 72.2872 22.4324 71.9659C22.3821 71.9631 22.3321 71.9605 22.2818 71.9581C22.0227 71.9465 21.7623 71.9385 21.5 71.9385C21.2177 71.9385 20.9356 71.9463 20.6539 71.9596C20.6503 71.9598 20.6466 71.9598 20.643 71.9601C18.3661 72.0694 16.1216 72.6125 14.1667 73.5918ZM21.5 101.326C14.35 101.326 8.66674 95.6326 8.66674 88.4694C8.66674 81.7603 13.6524 76.3407 20.1589 75.6803C20.1716 75.679 20.1841 75.6777 20.1968 75.6764C20.3815 75.6581 20.5678 75.645 20.7549 75.6347C20.7934 75.6325 20.8314 75.6295 20.8699 75.6278C21.0787 75.6179 21.2888 75.6121 21.5002 75.6121C21.7024 75.6121 21.903 75.6181 22.1026 75.6271C22.1568 75.6295 22.2105 75.633 22.2644 75.6362C22.4228 75.6452 22.5802 75.6568 22.7369 75.6715C22.7807 75.6756 22.8247 75.6792 22.8686 75.6838C23.2776 75.7262 23.6804 75.7869 24.0766 75.8661C24.0992 75.8706 24.1215 75.8753 24.1439 75.8801C24.3346 75.9192 24.5241 75.9621 24.7117 76.0096C24.7201 76.0118 24.7282 76.0137 24.7366 76.0157C25.1397 76.1185 25.5348 76.2404 25.9208 76.3799C25.935 76.385 25.949 76.3902 25.9629 76.3953C26.1376 76.4593 26.3104 76.5271 26.4814 76.5981C26.5024 76.6069 26.5235 76.6153 26.5445 76.6241C26.7278 76.7014 26.9089 76.7826 27.0874 76.868C27.0984 76.8734 27.1091 76.8792 27.1201 76.8844C27.2668 76.9552 27.4114 77.0297 27.5549 77.1059C27.6415 77.1519 27.7272 77.1995 27.8125 77.2477C27.8673 77.2785 27.9217 77.3097 27.9758 77.3411C30.3741 78.7415 32.2935 80.9324 33.4165 83.694C33.4515 83.8346 33.5072 83.9615 33.5785 84.0752C34.0666 85.4431 34.333 86.9218 34.333 88.4696C34.3333 95.6327 28.65 101.326 21.5 101.326ZM71 88.4694H38C38 88.2597 37.9936 88.0561 37.9847 87.8546C37.9564 87.0645 37.873 86.2898 37.7396 85.533C37.705 85.2922 37.6694 85.0483 37.6335 84.796H71C71 85.3471 71 86.0817 71 86.6327C71 87.1837 71 87.9184 71 88.4694Z" fill="black"/>
<path d="M21.5003 81.1222C17.467 81.1222 14.167 84.4283 14.167 88.4691C14.167 92.5098 17.467 95.8159 21.5003 95.8159C25.5335 95.8159 28.8335 92.5098 28.8335 88.4691C28.8335 84.4283 25.5335 81.1222 21.5003 81.1222ZM21.5003 92.1426C19.4835 92.1426 17.8335 90.4895 17.8335 88.4691C17.8335 86.4486 19.4835 84.7957 21.5003 84.7957C23.517 84.7957 25.167 86.4488 25.167 88.4693C25.167 90.4898 23.517 92.1426 21.5003 92.1426Z" fill="#119C0E"/>
<path d="M87.5003 48.061H105.834C106.934 48.061 107.667 47.3263 107.667 46.2243V24.1835C107.667 23.0814 106.934 22.3468 105.834 22.3468H87.5003C86.4003 22.3468 85.667 23.0814 85.667 24.1835V46.2243C85.667 47.3263 86.4003 48.061 87.5003 48.061ZM89.3335 26.0201H104V44.3874H89.3335V26.0201Z" fill="black"/>
<path d="M63.6668 70.1019H72.8335C73.9335 70.1019 74.6668 69.3672 74.6668 68.2652C74.6668 67.1631 73.9335 66.4285 72.8335 66.4285H63.6668C62.5668 66.4285 61.8335 67.1631 61.8335 68.2652C61.8333 69.3672 62.5668 70.1019 63.6668 70.1019Z" fill="#119C0E"/>
<path d="M58.1665 77.4491H67.3332C68.4332 77.4491 69.1665 76.7144 69.1665 75.6124C69.1665 74.5103 68.433 73.7755 67.333 73.7755H58.1663C57.0663 73.7755 56.333 74.5101 56.333 75.6122C56.333 76.7142 57.0665 77.4491 58.1665 77.4491Z" fill="#119C0E"/>
</svg>
